<svg xmlns="http://www.w3.org/2000/svg" width="300" height="300" viewBox="0 0 300 300">
    <defs>
        <style>
            .cls-3{fill:#fff}.cls-4{fill:#3f3d56}.cls-5{fill:#ffb8b8}.cls-6{fill:#2f2e41}.cls-7{fill:#6c63ff}
        </style>
    </defs>
    <g id="equality" transform="translate(-724 -3280)">
        <circle id="Ellipse_102" cx="150" cy="150" r="150" fill="rgba(112,112,112,0.2)" transform="translate(724 3280)"/>
        <g id="Group_7057" transform="translate(755.937 3347.539)">
            <path id="Path_3988" fill="#f2f2f2" d="M568.07 599.088a26.461 26.461 0 0 1-5.674 3.1c-.527.211-1.056.407-1.595.585h-27.486c-.111-.193-.219-.389-.331-.585-2.23-3.992-4.252-8.138-4.826-12.647-.688-5.414 1.241-11.544 6.008-14.2a9.534 9.534 0 0 1 1.972-.825c.284-.088.574-.158.866-.219a10.305 10.305 0 0 1 11.983 13.4c4.041-4.144 3.286-10.862 1.893-16.478s-3.087-11.866-.246-16.911a11.152 11.152 0 0 1 7.468-5.25c.1-.02.193-.041.287-.059a15.043 15.043 0 0 1 10.811 1.881c5.958 3.752 9.016 10.871 10.008 17.842 1.598 11.219-1.943 23.737-11.138 30.366z" transform="translate(-430.791 -436.847)"/>
            <path id="Path_3989" d="M556.613 639.746a23.162 23.162 0 0 1 2 14.424 23.792 23.792 0 0 1-4.378 9.9c-.149.2-.3.4-.456.585h-1.086c.167-.19.331-.386.486-.585a22.4 22.4 0 0 0 .41-27.677c.284-.088.574-.158.866-.219a23.4 23.4 0 0 1 2.158 3.572z" class="cls-3" transform="translate(-448.243 -498.73)"/>
            <path id="Path_3990" d="M603.6 581.811a25.574 25.574 0 0 1-1.765 7.2 22.2 22.2 0 0 1-3.447 5.63 28.408 28.408 0 0 1-10.927 7.878q-.457.193-.922.369c-.539.211-1.083.4-1.63.585h-2.964c.7-.176 1.4-.372 2.084-.585a34.762 34.762 0 0 0 4.773-1.882 26.5 26.5 0 0 0 9.914-8.132 23.941 23.941 0 0 0 4.214-13.127 55.431 55.431 0 0 0-1.574-14.994 62.865 62.865 0 0 0-5.288-14.406.452.452 0 0 1 .178-.6.391.391 0 0 1 .287-.059.335.335 0 0 1 .222.187c.29.565.574 1.13.846 1.7a63.8 63.8 0 0 1 4.984 14.948 51.287 51.287 0 0 1 1.015 15.288z" class="cls-3" transform="translate(-468.934 -437.556)"/>
            <path id="Path_3991" d="M208.525 390.081a12.29 12.29 0 1 1 12.29-12.29 12.29 12.29 0 0 1-12.29 12.29zm0-24a11.705 11.705 0 1 0 11.705 11.705 11.705 11.705 0 0 0-11.705-11.701z" class="cls-4" transform="translate(-196.094 -307.267)"/>
            <path id="Path_3992" d="M378.525 255.081a12.29 12.29 0 1 1 12.29-12.29 12.29 12.29 0 0 1-12.29 12.29zm0-24a11.705 11.705 0 1 0 11.705 11.705 11.705 11.705 0 0 0-11.705-11.701z" class="cls-4" transform="translate(-289.347 -215.772)"/>
            <path id="Path_3993" d="M560.526 191.081a12.29 12.29 0 1 1 12.29-12.29 12.29 12.29 0 0 1-12.29 12.29zm0-24a11.705 11.705 0 1 0 11.705 11.705 11.705 11.705 0 0 0-11.705-11.701z" class="cls-4" transform="translate(-409.088 -143.5)"/>
            <path id="Path_3994" d="M754.526 257.081a12.29 12.29 0 1 1 12.29-12.29 12.291 12.291 0 0 1-12.29 12.29zm0-24a11.705 11.705 0 1 0 11.705 11.705 11.705 11.705 0 0 0-11.705-11.701z" class="cls-4" transform="translate(-534.318 -184.186)"/>
            <path id="Path_3996" d="M400.4 256.046l1.463-.293a13.721 13.721 0 0 1-1.463 1.463 5.886 5.886 0 0 0 0 .878c-2.809 12.056-13.168 6.731-13.168 6.731 3.775.088 4.1-1.463 4.1-1.463a3 3 0 0 1-2.634-1.756.9.9 0 0 0 1.171-.293 2.658 2.658 0 0 1-2.048-2.926 3.043 3.043 0 0 0 1.434.556c-.263-.322-2.487-2.985-1.141-4.36a7.3 7.3 0 0 0 5.94 3.19l.293-.059a2.3 2.3 0 0 1-.059-.644 3.073 3.073 0 0 1 3.072-3.07c2.048 0 2.487 1.171 2.487 1.171l1.463-.878c-.029-.002-.175 1.461-.91 1.753z" class="cls-4" transform="translate(-304.202 -232.393)"/>
            <path id="Path_3997" d="M555.8 509.6l3.222 1.579 7.624-11.674-4.754-2.331z" class="cls-5" transform="translate(-393.152 -351.684)"/>
            <path id="Path_3998" d="M745.572 701.163l6.344 3.11a4.5 4.5 0 0 1 2.061 6.025l-.064.131-10.387-5.092z" class="cls-6" transform="translate(-583.231 -544.704)"/>
            <path id="Path_3999" d="M664.892 524.993h3.588l1.707-13.838h-5.295z" class="cls-5" transform="translate(-470.32 -361.576)"/>
            <path id="Path_4000" d="M857.531 716.939h7.069a4.5 4.5 0 0 1 4.5 4.5v.146h-11.569z" class="cls-6" transform="translate(-663.875 -555.864)"/>
            <circle id="Ellipse_151" cx="7.187" cy="7.187" r="7.187" class="cls-5" transform="translate(179.678 53.542)"/>
            <path id="Path_4001" d="M785.953 578.335a1.317 1.317 0 0 1-1.314-1.259L781.86 540.1a.439.439 0 0 0-.828-.189l-17.772 33.928a1.324 1.324 0 0 1-1.755.567l-4.954-2.477a1.319 1.319 0 0 1-.592-1.76l10.6-21.488 7.024-16.1c2.711-5.34 5.59-8.092 8.8-8.413 3.294-.329 6.813 1.936 10.758 6.926l.032.041v.052l-.585 45.17a1.311 1.311 0 0 1-1.194 1.309l-5.317.663q-.06.006-.124.006z" class="cls-6" transform="translate(-591.93 -419.482)"/>
            <path id="Path_4002" d="M796.707 481.127a3.144 3.144 0 0 0 .693-4.77l1.084-28.635-5.267.656-.444 27.858a3.161 3.161 0 0 0 3.935 4.891z" class="cls-5" transform="translate(-617.428 -365.428)"/>
            <path id="Path_4003" d="M799.667 433.87l-7.073-.8a1.41 1.41 0 0 1-1.2-1.763l1.826-6.859a3.915 3.915 0 0 1 7.777.907l.242 7.07a1.41 1.41 0 0 1-1.568 1.448z" class="cls-7" transform="translate(-617.055 -346.514)"/>
            <path id="Path_4004" d="M878.1 397.692a3.09 3.09 0 0 0-.07.48l-12.571 7.252-3.055-1.759-3.257 4.264 5.107 3.64a2.341 2.341 0 0 0 2.809-.068l12.962-10.226a3.072 3.072 0 1 0-1.924-3.582z" class="cls-5" transform="translate(-665.016 -328.361)"/>
            <path id="Path_4005" d="M850.109 416.641l-4.063 5.266a1.317 1.317 0 0 1-1.991.109l-4.6-4.776a3.657 3.657 0 1 1 4.485-5.778l5.769 3.226a1.317 1.317 0 0 1 .4 1.954z" class="cls-7" transform="translate(-650.088 -339.235)"/>
            <path id="Path_4006" d="M830.428 449.966l-7.8-37.992a7.124 7.124 0 0 0-8.15-5.595l-2.6.434a6.976 6.976 0 0 0-4.53 2.826 9.742 9.742 0 0 0-1.455 8.284l4.305 15.409L807 449.84a1.169 1.169 0 0 0 1.313 1.381c1.6-.229 4.236-.555 7.265-.734l1.641-6.328.667 6.228a41.5 41.5 0 0 1 11.09.944 1.172 1.172 0 0 0 1.451-1.365z" class="cls-7" transform="translate(-627.093 -336.114)"/>
            <path id="Path_4007" d="M781.25 347.127c1.847 1.264 4.273 2.564 6.16 1.218a3.433 3.433 0 0 0 1.127-3.958c-.9-2.583-3.386-3.721-5.759-4.593-3.086-1.133-6.445-2.035-9.631-1.223s-6 3.9-5.426 7.132c.462 2.6 2.918 4.768 2.569 7.389-.351 2.637-3.317 4.025-5.935 4.5s-5.548.623-7.43 2.5c-2.4 2.4-1.8 6.688.458 9.221s5.667 3.681 8.97 4.462c4.376 1.034 9.109 1.578 13.266-.139s7.391-6.337 6.187-10.669a14.884 14.884 0 0 0-2.864-4.882 13.607 13.607 0 0 1-2.772-4.928 5.122 5.122 0 0 1 .925-4.482 1.3 1.3 0 0 0 .174-1.518z" class="cls-6" transform="translate(-591.619 -287.997)"/>
            <path id="Path_4008" d="M576.282 184.736a3.1 3.1 0 0 1 3.09 3.09V194a3.1 3.1 0 0 1-3.09 3.09H570.1a3.1 3.1 0 0 1-3.09-3.09v-6.179a3.1 3.1 0 0 1 3.09-3.09h6.179m0-1.236H570.1a4.338 4.338 0 0 0-4.325 4.325V194a4.338 4.338 0 0 0 4.325 4.325h6.179a4.338 4.338 0 0 0 4.329-4.325v-6.179a4.338 4.338 0 0 0-4.325-4.325z" class="cls-4" transform="translate(-421.497 -155.525)"/>
            <path id="Path_4009" d="M602.61 193.81a.925.925 0 1 1 .927-.926.925.925 0 0 1-.927.926z" class="cls-4" transform="translate(-446.899 -161.51)"/>
            <path id="Path_4010" d="M582.155 197.4a2.472 2.472 0 1 1-2.472 2.472 2.472 2.472 0 0 1 2.472-2.472m0-1.236a3.707 3.707 0 1 0 3.707 3.707 3.707 3.707 0 0 0-3.707-3.707z" class="cls-4" transform="translate(-430.459 -164.487)"/>
            <path id="Path_4011" d="M154.727 518.237l-3.492-.823 1.511-13.86 5.154 1.214z" class="cls-5" transform="translate(-106.976 -356.199)"/>
            <path id="Path_4012" d="M332.033 717.368l-11.26-2.653.034-.142a4.5 4.5 0 0 1 5.415-3.35l6.877 1.62z" class="cls-6" transform="translate(-284.189 -551.734)"/>
            <path id="Path_4013" d="M196.872 520.681h-3.588l-1.707-13.838h5.295z" class="cls-5" transform="translate(-135.513 -358.525)"/>
            <path id="Path_4014" d="M380.6 721.277h-11.569v-.146a4.5 4.5 0 0 1 4.5-4.5h7.069z" class="cls-6" transform="translate(-318.324 -555.643)"/>
            <path id="Path_4015" d="M428.429 458.181a3.144 3.144 0 0 0-1.532-4.571l-10.5-26.636-5.844 3.548 12.162 25.067a3.161 3.161 0 0 0 5.717 2.592z" class="cls-5" transform="translate(-347.694 -350.751)"/>
            <path id="Path_4016" d="M413.377 415.995l-6.676 2.471a1.41 1.41 0 0 1-1.869-1.031l-1.462-6.945a3.915 3.915 0 0 1 7.35-2.7l3.4 6.2a1.41 1.41 0 0 1-.747 2z" class="cls-7" transform="translate(-342.445 -335.367)"/>
            <path id="Path_4017" d="M362.954 583.484h-.054l-5.085-.2a1.309 1.309 0 0 1-1.264-1.334l.39-28.093a.439.439 0 0 0-.875-.052l-2.95 28.123a1.321 1.321 0 0 1-1.093 1.162h-.018l-4.774-.375a1.317 1.317 0 0 1-1.515-1.309L346 533.77l23.425 1.483-5.165 47.058a1.321 1.321 0 0 1-1.306 1.173z" class="cls-6" transform="translate(-301.833 -426.296)"/>
            <circle id="Ellipse_152" cx="7.187" cy="7.187" r="7.187" class="cls-5" transform="translate(49.652 51.517)"/>
            <path id="Path_4018" d="M367.238 442.881h-.1l-21.65-1.584a1.317 1.317 0 0 1-1.221-1.341l.571-27.187a12.264 12.264 0 1 1 24.475.815c-.379 4.19-.68 22.495-.763 28a1.315 1.315 0 0 1-1.313 1.3z" class="cls-7" transform="translate(-300.808 -331.827)"/>
            <path id="Path_4019" d="M276.263 388.962a3.083 3.083 0 0 1 .07.48l12.571 7.252 3.055-1.759 3.257 4.264-5.106 3.64a2.341 2.341 0 0 1-2.809-.068l-12.963-10.226a3.072 3.072 0 1 1 1.924-3.582z" class="cls-5" transform="translate(-248.415 -322.186)"/>
            <path id="Path_4020" d="M334.64 406.842a1.315 1.315 0 0 1 .647-.885l5.769-3.226a3.657 3.657 0 1 1 4.485 5.778l-4.6 4.776a1.317 1.317 0 0 1-1.991-.109l-4.063-5.266a1.315 1.315 0 0 1-.248-1.068z" class="cls-7" transform="translate(-293.979 -333.059)"/>
            <path id="Path_4021" d="M369.363 350.047a6.546 6.546 0 0 1-5.516-3.1c-.063-.1-.409-.607-.81-1.2-1.126-1.653-1.39-2.046-1.412-2.1a2.452 2.452 0 0 0-2.029-1.206c-.141-.022-.285-.041-.428-.06-1.067-.143-2.17-.291-2.775-1.463-.444-.86-1.169-4.364-.612-5.22.7-1.074 2.04-.725 3.337-.388a5.7 5.7 0 0 0 2.372.3c2.964-.617 6.324-1.316 9.291.491a8.008 8.008 0 0 1 3.707 7.087c-.081 3.15-1.454 5.637-3.675 6.652l-.462.135-.26.032a6.436 6.436 0 0 1-.728.041z" class="cls-6" transform="translate(-308.81 -285.653)"/>
            <path id="Path_4024" fill="#3f3d56" fill-rule="evenodd" d="M226.846 388.247a8.035 8.035 0 1 0-9.29 7.937v-5.614h-2.041v-2.323h2.041v-1.77a2.836 2.836 0 0 1 3.035-3.126 12.352 12.352 0 0 1 1.8.157v1.977h-1.014a1.162 1.162 0 0 0-1.31 1.255v1.507h2.228l-.356 2.323h-1.872v5.615a8.037 8.037 0 0 0 6.779-7.938z" transform="translate(-206.38 -317.674)"/>
            <path id="Path_4025" d="M432.215 731.793a.293.293 0 0 1-.293.293H196.063a.293.293 0 1 1 0-.585h235.86a.294.294 0 0 1 .293.293z" class="cls-4" transform="translate(-195.765 -566.164)"/>
            <g id="_011-youtube" transform="translate(212.785 54.35)">
                <path id="Path_2991" d="M12.536 0H2.152A2.154 2.154 0 0 0 0 2.152v6.885a2.154 2.154 0 0 0 2.152 2.152h10.384a2.154 2.154 0 0 0 2.152-2.152V2.152A2.154 2.154 0 0 0 12.536 0zM5.192 8.561v-5.85l5.178 2.877zm0 0" class="cls-4"/>
                <path id="Path_2992" d="M211 145.488v2.9l2.568-1.474zm0 0" class="cls-4" transform="translate(-204.947 -141.314)"/>
            </g>
        </g>
    </g>
</svg>
