<svg xmlns="http://www.w3.org/2000/svg" width="300" height="300" viewBox="0 0 300 300">
    <defs>
        <style>
            .cls-3{fill:#f2f2f2}.cls-4{fill:#ffe600}.cls-5{fill:#ccc}.cls-6{fill:#ffb8b8}.cls-7{fill:#2f2e41}.cls-8{fill:#3f3d56}
        </style>
    </defs>
    <g id="teaching" transform="translate(-849 -2721)">
        <circle id="Ellipse_99" cx="150" cy="150" r="150" fill="rgba(112,112,112,0.2)" transform="translate(849 2721)"/>
        <g id="learning" transform="translate(856.76 2777)" style="isolation:isolate">
            <path id="Path_2098" d="M448.254 584.643v46.026H332.941c-13.138 0-23.828-10.324-23.828-23.013s10.689-23.013 23.828-23.013z" class="cls-3" transform="translate(-280.396 -443.085)"/>
            <path id="Path_2099" d="M446.565 628.377a1.771 1.771 0 0 1-1.77 1.77H326.366a24.252 24.252 0 1 1 0-48.5h118.428a1.77 1.77 0 0 1 0 3.541H326.366a20.712 20.712 0 0 0 0 41.423h118.428a1.771 1.771 0 0 1 1.771 1.766z" class="cls-4" transform="translate(-275.874 -441.147)"/>
            <path id="Path_2100" d="M475.384 613.351H351.468a.354.354 0 1 1 0-.708h123.916a.354.354 0 0 1 0 .708z" class="cls-5" transform="translate(-307.655 -461.172)"/>
            <path id="Path_2101" d="M475.384 637.351H351.468a.354.354 0 1 1 0-.708h123.916a.354.354 0 0 1 0 .708z" class="cls-5" transform="translate(-307.655 -476.674)"/>
            <path id="Path_2102" d="M475.384 661.351H351.468a.354.354 0 1 1 0-.708h123.916a.354.354 0 0 1 0 .708z" class="cls-5" transform="translate(-307.655 -492.177)"/>
            <path id="Path_2103" d="M475.384 685.351H351.468a.354.354 0 1 1 0-.708h123.916a.354.354 0 0 1 0 .708z" class="cls-5" transform="translate(-307.655 -507.68)"/>
            <path id="Path_2104" d="M720.787 467.248l-28.877 35.839-89.791-72.349c-10.231-8.243-12.077-22.989-4.115-32.87S620.766 386.655 631 394.9z" class="cls-3" transform="translate(-464.701 -317.026)"/>
            <path id="Path_2105" d="M689.845 500.8a1.771 1.771 0 0 1-2.489.268l-92.218-74.3a24.252 24.252 0 0 1 30.433-37.769l92.218 74.3a1.77 1.77 0 0 1-2.221 2.757l-92.218-74.3a20.712 20.712 0 1 0-25.99 32.256l92.218 74.3a1.771 1.771 0 0 1 .267 2.488z" class="cls-5" transform="translate(-460.208 -313.237)"/>
            <path id="Path_2106" d="M758.721 489.475l-96.491-77.747a.354.354 0 1 1 .444-.551l96.491 77.748a.354.354 0 1 1-.444.551z" class="cls-5" transform="translate(-509.299 -330.553)"/>
            <path id="Path_2107" d="M743.663 508.164l-96.491-77.748a.354.354 0 1 1 .444-.551l96.491 77.748a.354.354 0 1 1-.444.551z" class="cls-5" transform="translate(-499.572 -343.055)"/>
            <path id="Path_2108" d="M728.605 526.852l-96.491-77.747a.354.354 0 0 1 .444-.551L729.05 526.3a.354.354 0 0 1-.444.551z" class="cls-5" transform="translate(-489.845 -355.127)"/>
            <path id="Path_2109" d="M713.547 545.54l-96.491-77.747a.354.354 0 1 1 .444-.551l96.491 77.747a.354.354 0 0 1-.444.551z" class="cls-5" transform="translate(-480.118 -367.198)"/>
            <path id="Path_2111" d="M327.184 362.137h-4.047l-1.925-15.612h5.974z" class="cls-6" transform="translate(-207.855 -224.944)"/>
            <path id="Path_2112" d="M309.515 387.355h7.806v4.915H304.6a4.915 4.915 0 0 1 4.915-4.915z" class="cls-7" transform="translate(-197.112 -251.378)"/>
            <path id="Path_2113" d="M210.389 362.137h-4.047l-1.925-15.612h5.974z" class="cls-6" transform="translate(-132.257 -224.944)"/>
            <path id="Path_2114" d="M192.721 387.355h7.806v4.915h-12.721a4.915 4.915 0 0 1 4.915-4.915z" class="cls-7" transform="translate(-121.511 -251.378)"/>
            <path id="Path_2115" d="M487.471 219.828v-1.77a11.418 11.418 0 0 1 11.418-11.418 11.418 11.418 0 0 1 11.418 11.418v1.77a8.232 8.232 0 0 1-8.232 8.232H495.7a8.232 8.232 0 0 1-8.232-8.232z" class="cls-7" transform="translate(-395.913 -197.334)"/>
            <circle id="Ellipse_47" cx="8.696" cy="8.696" r="8.696" class="cls-6" transform="translate(94.277 13.943)"/>
            <path id="Path_2117" d="M384.187 327.06a3.32 3.32 0 0 1 5.056.594l7.454-1.41 1.962 4.321-10.559 1.843a3.338 3.338 0 0 1-3.917-5.348z" class="cls-6" transform="translate(-328.294 -274.977)"/>
            <path id="Path_2118" d="M439.243 283.533l.1.148-12.224 8.053-20.626 6.586a1.242 1.242 0 0 0-.854 1.323l.45 3.876a1.239 1.239 0 0 0 1.491 1.069l19.412-4.161a7.013 7.013 0 0 0 2.61-1.149l13.733-9.771a3.532 3.532 0 0 0-3.992-5.826z" class="cls-5" transform="translate(-342.946 -247.062)"/>
            <path id="Path_2119" d="M473.627 421.516a1.6 1.6 0 0 1-1.465-.957l-18.556-45.849a.531.531 0 0 0-.994.056L437.474 419.4a1.594 1.594 0 0 1-2.082 1.024l-5.076-1.9a1.589 1.589 0 0 1-1.026-1.312c-2.284-19.895 17.631-70.112 17.833-70.617l.056-.14 18.154 4.016.038.041c7.243 7.9 13.2 57.738 14.317 67.649a1.586 1.586 0 0 1-1.052 1.681l-4.481 1.585a1.577 1.577 0 0 1-.527.091z" class="cls-7" transform="translate(-358.162 -288.449)"/>
            <path id="Path_2120" d="M490.077 305.182c-4.4 0-9.3-.877-10.812-4.5l-.035-.083.047-.077c1.191-1.955 2.766-5.29 1.92-5.916-1.667-1.233-2.476-3.261-2.4-6.028a14.523 14.523 0 0 1 10.184-13.271 45.2 45.2 0 0 1 5.05-1.3 8.6 8.6 0 0 1 7.128 1.76 8.683 8.683 0 0 1 3.22 6.681c.062 6.419-.926 15.36-5.988 21.5a1.575 1.575 0 0 1-.932.542 43.276 43.276 0 0 1-7.382.692z" class="cls-5" transform="translate(-390.296 -241.071)"/>
            <path id="Path_2121" d="M505.819 348.328a3.383 3.383 0 0 1 4.135-2.359 3.331 3.331 0 0 1 .513.19l5.66-5.151 3.936 2.652-8.094 7.163a3.377 3.377 0 0 1-3.828 1.624 3.326 3.326 0 0 1-2.321-4.118z" class="cls-6" transform="translate(-407.697 -284.63)"/>
            <path id="Path_2122" d="M525.654 311.139a1.589 1.589 0 0 1-1.008-.359l-2.232-1.824a1.593 1.593 0 0 1 .039-2.5l9.362-7.18a.532.532 0 0 0 .1-.742l-5.778-7.639a4.7 4.7 0 0 1 .314-6.059 4.69 4.69 0 0 1 6.333-.507l.037.039 6.034 8.64a5.379 5.379 0 0 1-.127 8.563l-12.128 9.256a1.6 1.6 0 0 1-.946.312z" class="cls-5" transform="translate(-418.15 -247.228)"/>
            <path id="Path_2123" d="M497.965 223.382v-4.314l7.7-3.363 7.344 3.363v4.314a.708.708 0 0 1-.708.708h-13.628a.708.708 0 0 1-.708-.708z" class="cls-7" transform="translate(-402.696 -203.189)"/>
            <path id="Path_2124" d="M518.2 190.235c-1.133-3.625 1.246-7.779 4.762-9.214s7.723-.432 10.69 1.939a18.038 18.038 0 0 1 5.783 9.592 53.73 53.73 0 0 1 1.341 11.291 7.587 7.587 0 1 1-7.271 2.693 9.338 9.338 0 0 0-10.865-14.484c-2.127.89-4.799-1.424-4.44-1.817z" class="cls-7" transform="translate(-415.633 -180.357)"/>
            <path id="Path_2125" d="M352.546 246.367a36.98 36.98 0 0 1-14.993-3.284 1.584 1.584 0 0 1-.939-1.453v-12.894a1.6 1.6 0 0 1 1.593-1.593h28.678a1.6 1.6 0 0 1 1.593 1.593v12.894a1.584 1.584 0 0 1-.939 1.453 36.98 36.98 0 0 1-14.993 3.284z" class="cls-4" transform="translate(-298.16 -210.578)"/>
            <path id="Path_2126" d="M337.206 212.879a1.6 1.6 0 0 1-.619-.124l-22.741-9.595a1.593 1.593 0 0 1 .054-2.957l22.741-8.627a1.587 1.587 0 0 1 1.137 0l22.437 8.627a1.593 1.593 0 0 1 .055 2.952l-22.437 9.594a1.6 1.6 0 0 1-.627.13z" class="cls-4" transform="translate(-282.823 -187.536)"/>
            <circle id="Ellipse_48" cx="2.124" cy="2.124" r="2.124" class="cls-8" transform="translate(38.985 29.133)"/>
            <path id="Path_2127" d="M360.937 219.55l-22.437 9.594a1.416 1.416 0 0 1-1.107 0l-22.741-9.594a1.389 1.389 0 0 1-.677-.6 1.415 1.415 0 0 0 .677 2.011l22.741 9.594a1.416 1.416 0 0 0 1.107 0l22.437-9.594a1.415 1.415 0 0 0 .671-2.009 1.39 1.39 0 0 1-.671.598z" opacity="0.2" transform="translate(-283.413 -205.291)"/>
            <path id="Path_2128" d="M343.972 237.306a.354.354 0 0 0 .354-.354V225.1L356 220.851a.354.354 0 1 0 .011-.708l-11.674 4.257a.7.7 0 0 0-.507.2.7.7 0 0 0-.211.5v11.847a.354.354 0 0 0 .353.359z" class="cls-8" transform="translate(-302.751 -206.057)"/>
        </g>
    </g>
</svg>
