<svg xmlns="http://www.w3.org/2000/svg" width="300" height="300" viewBox="0 0 300 300">
    <defs>
        <style>
            .cls-11,.cls-16,.cls-23,.cls-3,.cls-4,.cls-6,.cls-9{isolation:isolate}.cls-3{fill:#fe8ad5}.cls-11,.cls-16,.cls-23,.cls-3,.cls-4,.cls-6,.cls-9{mix-blend-mode:multiply}.cls-4{fill:#3b90ff}.cls-11,.cls-21,.cls-23,.cls-4,.cls-6,.cls-9{opacity:.5}.cls-16,.cls-5,.cls-6{fill:#0f144b}.cls-7,.cls-9{fill:#134d97}.cls-13,.cls-19,.cls-25,.cls-8{fill:none;stroke-miterlimit:10}.cls-8{stroke:#0f144b}.cls-13,.cls-19,.cls-8{stroke-width:.961px}.cls-10,.cls-11{fill:#34bdc5}.cls-12,.cls-21{fill:#ef5861}.cls-13{stroke:#134d97}.cls-14{fill:#fff}.cls-15,.cls-23{fill:#6ef4f4}.cls-18{fill:#fe899b}.cls-19,.cls-25{stroke:#bb1f44}.cls-25{stroke-width:.48px}
        </style>
    </defs>
    <g id="equality" transform="translate(-724 -3280)">
        <circle id="Ellipse_102" cx="150" cy="150" r="150" fill="rgba(112,112,112,0.2)" transform="translate(724 3280)"/>
        <g id="equality-2" transform="translate(-27.829 -1390.889)" style="isolation:isolate">
            <g id="Group_4413" transform="translate(804.829 4729.889)">
                <g id="BACKGROUND" transform="translate(0 2.343)">
                    <g id="Group_4388">
                        <path id="Path_2156" d="M388.459 519.688c0 2.349-12.829 4.253-28.653 4.253s-28.653-1.9-28.653-4.253 12.829-4.253 28.653-4.253 28.653 1.904 28.653 4.253z" class="cls-3" transform="translate(-315.595 -344.284)"/>
                        <path id="Path_2157" d="M383.991 203.541a44.476 44.476 0 0 0-34.82-43.246v-22.641l8.213 8.157 7.686-7.636-25.9-25.726-25.9 25.727 7.687 7.634 8.939-8.88v23.281a44.373 44.373 0 1 0 54.094 43.329zm-74.61 0a29.972 29.972 0 1 1 29.971 29.77 29.906 29.906 0 0 1-29.971-29.77z" class="cls-3" transform="translate(-294.715 -112.449)"/>
                    </g>
                    <g id="Group_4389" transform="translate(106.541)">
                        <path id="Path_2158" d="M655.724 519.688c0 2.349-13.676 4.253-30.547 4.253s-30.547-1.9-30.547-4.253 13.677-4.253 30.547-4.253 30.547 1.904 30.547 4.253z" class="cls-4" transform="translate(-573.809 -344.284)"/>
                        <path id="Path_2159" d="M599.464 247.7v-25.106h12.619v-13.179h-12.619v-10.1a44.236 44.236 0 1 0-19.1-.082v10.185h-12.617v13.179h12.617V247.7zM560.4 156.382a29.7 29.7 0 1 1 29.7 29.5 29.631 29.631 0 0 1-29.7-29.5z" class="cls-4" transform="translate(-545.865 -112.449)"/>
                    </g>
                </g>
                <g id="OBJECTS" transform="translate(28.883)">
                    <g id="Group_4393" transform="translate(0 32.956)">
                        <g id="Group_4390" transform="translate(15.954 45.904)">
                            <path id="Path_2160" d="M399.729 337.309l18.43-39.331a14.029 14.029 0 0 1 4.891 16.832c-4.125 10.932-13.516 20.778-13.516 20.778s5.888 5.524 5.61 12.771-2.882 18.022-2.882 18.022z" class="cls-5" transform="translate(-399.729 -296.191)"/>
                            <path id="Path_2161" d="M402.633 374.8l-2.9 6.2 12.533 29.072s2.6-10.775 2.882-18.022-5.61-12.772-5.61-12.772 1.851-1.942 4.269-5.054a45.181 45.181 0 0 1-11.174.576z" class="cls-6" transform="translate(-399.729 -339.883)"/>
                            <path id="Path_2162" d="M406.188 382.475l11.756-50.918 7.916-34.438 9-3.326s4.672 5.74 3.753 12.391-14.954 34.246-14.954 34.246 2.713 9.4 1.543 15.753-14.877 27.842-14.877 27.842z" class="cls-7" transform="translate(-403.43 -293.793)"/>
                            <path id="Path_2163" d="M441.819 300.879s-1.3 8.064-.766 10.059a22.73 22.73 0 0 0 1.611 4.032l3.248-13.778z" class="cls-7" transform="translate(-423.334 -297.853)"/>
                            <path id="Path_2164" d="M446.321 316.487a35.059 35.059 0 0 1 2.051-9.334" class="cls-8" transform="translate(-426.428 -301.449)"/>
                            <path id="Path_2165" d="M452.567 327.745c3.6-9.185 7.9-17.273 5.744-27.078" class="cls-8" transform="translate(-430.007 -297.732)"/>
                            <path id="Path_2166" d="M429.988 413.844c2.648-8.462 4.148-17.3 6.644-25.812" class="cls-8" transform="translate(-417.068 -347.795)"/>
                            <path id="Path_2167" d="M459.931 304.991c.007 3.2-.766 6.954 2.974 8.308" class="cls-8" transform="translate(-434.191 -300.21)"/>
                            <path id="Path_2168" d="M425.2 397.4c1.17-6.357-1.543-15.753-1.543-15.753s3.91-7.688 7.738-15.926a96.532 96.532 0 0 1-12.611 3.4l-.839 3.649-11.756 50.918 4.134 1.55s13.705-21.479 14.877-27.838z" class="cls-9" transform="translate(-403.43 -335.011)"/>
                        </g>
                        <g id="Group_4391" transform="translate(0 134.549)">
                            <path id="Path_2169" d="M362.363 511.649l18.756-10.242 4.134 1.55-.663 8.692z" class="cls-10" transform="translate(-362.363 -501.407)"/>
                            <path id="Path_2170" d="M366.911 515.06l-4.548 2.484h22.227l.446-5.85a47.052 47.052 0 0 1-18.125 3.366z" class="cls-11" transform="translate(-362.363 -507.302)"/>
                        </g>
                        <g id="Group_4392" transform="translate(17.295)">
                            <path id="Path_2171" d="M402.868 203.915l16.355 31.626s.708 1.153 3.7 1.435c5.061.478 10.035-4.79 10.035-4.79l-1.679-45.9z" class="cls-10" transform="translate(-402.868 -186.282)"/>
                            <path id="Path_2172" d="M415.107 243.885l11.129 21.521s.707 1.153 3.7 1.435c5.061.478 10.035-4.79 10.035-4.79L439.1 238.4a35.049 35.049 0 0 1-4.521 2.619 39.367 39.367 0 0 1-19.472 2.866z" class="cls-11" transform="translate(-409.881 -216.148)"/>
                        </g>
                    </g>
                    <g id="Group_4396" transform="translate(86.964 54.085)">
                        <path id="Path_2173" d="M618.442 275.514s-1.026-11.8-1.675-17.813-1.608-7.727-2.018-12.651c-.164-1.971-.575-5.519-1.153-9.284a15.865 15.865 0 0 1-7.975 1.419c.736 5.2 1.406 9.889 1.643 11.386.616 3.898 11.178 26.943 11.178 26.943z" class="cls-12" transform="translate(-589.413 -235.767)"/>
                        <g id="Group_4394" transform="translate(21.472 98.245)">
                            <path id="Path_2174" d="M617.952 502.061v9.984h19.42l-16.959-9.984z" class="cls-10" transform="translate(-617.952 -486.607)"/>
                            <path id="Path_2175" d="M620.057 502.061h-2.1v9.983h19.42l-.842-.5c-4.518-.109-8.953-.71-13.127-2.881-2.819-1.495-3.572-3.904-3.351-6.602z" class="cls-11" transform="translate(-617.952 -486.607)"/>
                            <path id="Path_2176" d="M697.09 468.465l5.91 9.026 16.921-11.625-21.576 1.759z" class="cls-10" transform="translate(-663.3 -465.866)"/>
                            <path id="Path_2177" d="M702.909 471.84a4.753 4.753 0 0 1-3.759-2.008l-.807.066-1.253.84 5.91 9.026 13.92-9.564a30.14 30.14 0 0 1-14.011 1.64z" class="cls-11" transform="translate(-663.3 -468.139)"/>
                        </g>
                        <g id="Group_4395" transform="translate(0 15.098)">
                            <path id="Path_2178" d="M641.447 377.558s-14.77-16-22.018-24.753-11.49-14.768-14.5-21.881c-4.668-11.043 10.941-17.732 10.941-17.732l28.377 61.854z" class="cls-5" transform="translate(-588.52 -295.232)"/>
                            <path id="Path_2179" d="M590.5 292.46c2.051-1.367 4.513-3.372 4.513-3.372s-5.368-13.208-6.326-16.354c-.169-.556-.965-1.074-1.094-1.606a15 15 0 0 1-12.915.281c-2.754 2.92-7.111 8.647-7.018 15.581.137 10.121 1.778 17.916 5.881 32s14.226 46.91 14.226 46.91l3.966-1.5s-2.051-19.283-2.462-38.019-.82-32.553 1.229-33.921z" class="cls-7" transform="translate(-567.661 -271.129)"/>
                            <path id="Path_2180" d="M651.214 401.258c-5.968-6.4-22.69-31.715-26.273-38.605" class="cls-13" transform="translate(-600.484 -323.575)"/>
                            <path id="Path_2181" d="M592.737 389.725c-3.347-8.083-10.135-37.656-11.076-45.365" class="cls-8" transform="translate(-575.684 -313.093)"/>
                            <path id="Path_2182" d="M581.9 294.769a58.7 58.7 0 0 1 2.359-20.924" class="cls-8" transform="translate(-575.748 -272.685)"/>
                            <path id="Path_2183" d="M609.64 296.427a154.9 154.9 0 0 1-6.667-18.257" class="cls-8" transform="translate(-587.896 -275.164)"/>
                            <path id="Path_2184" d="M619.246 298.624c3.34-4.261.2-12.057-1.155-16.621" class="cls-8" transform="translate(-596.559 -277.36)"/>
                            <path id="Path_2185" d="M581.837 296.427c6.792-3.914 6.034-11 6.564-18.257" class="cls-8" transform="translate(-575.784 -275.164)"/>
                            <path id="Path_2186" d="M613.414 493.931l-2.188-6.291 6.428-1.914.957 8.205z" class="cls-5" transform="translate(-592.625 -394.1)"/>
                            <path id="Path_2187" d="M636.293 396.044c7.248 8.752 22.018 24.753 22.018 24.753l2.8-2.513-13.6-29.636a53.5 53.5 0 0 1-14.027 3.956c.889 1.103 1.816 2.244 2.809 3.44z" class="cls-6" transform="translate(-605.384 -338.471)"/>
                            <path id="Path_2188" d="M598.909 396.534l-.015-.666a45.023 45.023 0 0 1-14.414-2.308c4.612 15.538 12.924 42.5 12.924 42.5l3.966-1.5s-2.051-19.29-2.461-38.026z" class="cls-9" transform="translate(-577.299 -341.286)"/>
                            <path id="Path_2189" d="M617.768 486.7l-.114-.979-6.428 1.914 2.188 6.291h2.761a19.378 19.378 0 0 1 1.593-7.226z" class="cls-6" transform="translate(-592.625 -394.1)"/>
                            <path id="Path_2190" d="M692.018 462.363l-4.239-4.65 5.475-4.643 2.476 7z" class="cls-7" transform="translate(-636.493 -375.387)"/>
                            <path id="Path_2191" d="M692.293 454.981l-4.513 3.827 4.239 4.65 2.369-1.463c-1.577-1.537-2.077-4.201-2.095-7.014z" class="cls-9" transform="translate(-636.493 -376.482)"/>
                        </g>
                    </g>
                    <g id="Group_4398" transform="translate(45.626 58.771)">
                        <g id="Group_4397">
                            <path id="Rectangle_3534" d="M0 0H46.361V16.043H0z" class="cls-14"/>
                            <path id="Rectangle_3535" d="M0 0H46.361V16.043H0z" class="cls-14" transform="translate(0 20.882)"/>
                        </g>
                    </g>
                    <g id="Group_4406" transform="translate(59.353 5.775)">
                        <g id="Group_4404" transform="translate(0 32.581)">
                            <path id="Path_2192" d="M597.016 265.068a34.992 34.992 0 0 1-.786-4.516l-11.214 2.12a27.252 27.252 0 0 1-.914 2.676 15 15 0 0 0 12.914-.28z" class="cls-5" transform="translate(-549.144 -233.33)"/>
                            <path id="Path_2193" d="M599.693 264.757l1.193 4.9 6.159-1.377-1.068-4.925z" class="cls-15" transform="translate(-558.078 -234.936)"/>
                            <path id="Path_2194" d="M610.2 213.435c-.867-5.64-2.109-11.765-3.462-13.795-2.257-3.385-7.044-2.808-7.044-2.808s1.35 9.677 2.531 18.021a15.866 15.866 0 0 0 7.975-1.418z" class="cls-5" transform="translate(-558.078 -196.796)"/>
                            <path id="Path_2195" d="M604.416 226.073a15.866 15.866 0 0 0 7.975-1.419c-.435-2.832-.965-5.785-1.556-8.281a18.873 18.873 0 0 1-7.317 3.332c.294 2.095.601 4.271.898 6.368z" class="cls-16" transform="translate(-560.27 -208.014)"/>
                            <path id="Path_2196" d="M571.347 224.821c1.368 1.778 5.334 2.8 10.052 2.051s6.487-2.381 5.94-5.322-2.453-8.08-1.7-9.722 3.632-2.667 3.286-5.676-8.962-9.026-8.962-9.026a14.929 14.929 0 0 0-5.481 0c-3.2.547-9.084 2.257-9.084 2.257s-2.188 8.616 0 12.923 4.581 10.736 5.949 12.515z" class="cls-10" transform="translate(-537.869 -196.846)"/>
                            <path id="Path_2197" d="M564.606 213.484c-.3 2.742-.337 6.112.792 8.335 2.189 4.308 4.581 10.736 5.949 12.514s5.334 2.8 10.052 2.051 6.487-2.381 5.94-5.322-2.453-8.08-1.7-9.722 3.632-2.667 3.286-5.676a3.012 3.012 0 0 0-.369-1.041 18.875 18.875 0 0 1-8.208 3.578c-5.96.569-11.165-1.506-15.742-4.717z" transform="translate(-537.87 -206.359)" style="mix-blend-mode:multiply;isolation:isolate" fill="#34bdc5"/>
                            <path id="Path_2198" d="M574.87 228.442c3.611 4.952 9.57-.16 14.155.41" class="cls-13" transform="translate(-543.854 -214.93)"/>
                            <path id="Path_2199" d="M578.714 199.99c2.164 1.254 6.984 2.47 8.1-.615" class="cls-13" transform="translate(-546.057 -198.274)"/>
                            <path id="Path_2200" d="M586.7 210.5a30.346 30.346 0 0 0 7.18 1.983" class="cls-13" transform="translate(-550.633 -204.65)"/>
                            <path id="Path_2201" d="M597.11 208.436a9.929 9.929 0 0 1 .889-1.777" class="cls-13" transform="translate(-556.598 -202.448)"/>
                            <g id="Group_4403" transform="translate(0 2.133)">
                                <path id="Path_2202" d="M514.963 214.793c-11.42 4.992-11.347 7.727-11.347 7.727s12.964-.889 21.066-2.21a64.666 64.666 0 0 0-3.149-8.707c-1.825.97-3.978 2.056-6.57 3.19z" class="cls-12" transform="translate(-503.023 -207.414)"/>
                                <path id="Path_2203" d="M558.359 202.742c-2.695-2.326-6.571-.06-12.78 3.238a64.682 64.682 0 0 1 3.149 8.707c1.163-.19 2.226-.388 3.135-.594 7.248-1.641 9.984-8.342 6.496-11.351z" class="cls-5" transform="translate(-527.069 -201.79)"/>
                                <path id="Path_2204" d="M545.579 208.541a64.682 64.682 0 0 1 3.149 8.707c1.163-.19 2.226-.388 3.135-.594a10.9 10.9 0 0 0 6.87-4.471 35.147 35.147 0 0 1-8.8-5.924c-1.31.652-2.753 1.432-4.354 2.282z" class="cls-16" transform="translate(-527.069 -204.351)"/>
                                <path id="Path_2205" d="M569.426 236.963l1.292 8.2 6.035-1.642s-.187-7.137-1.644-8.018-5.683 1.46-5.683 1.46z" class="cls-18" transform="translate(-540.734 -220.994)"/>
                                <g id="Group_4399" transform="translate(34.397 21.75)">
                                    <path id="Path_2206" d="M583.505 258.978h-.026a.683.683 0 0 1-.69-.678l.191-4.937a.7.7 0 0 1 .74-.632.681.681 0 0 1 .689.678l-.19 4.936a.69.69 0 0 1-.714.633z" class="cls-18" transform="translate(-582.789 -252.732)"/>
                                </g>
                                <g id="Group_4400" transform="translate(33.072 21.712)">
                                    <path id="Path_2207" d="M580.4 259.719a.687.687 0 0 1-.715-.655V253.3a.718.718 0 0 1 1.43 0v5.767a.687.687 0 0 1-.715.652z" class="cls-18" transform="translate(-579.685 -252.642)"/>
                                </g>
                                <g id="Group_4401" transform="translate(31.491 21.671)">
                                    <path id="Path_2208" d="M576.848 259.623a.688.688 0 0 1-.715-.64l-.151-5.767a.683.683 0 0 1 .7-.671h.018a.688.688 0 0 1 .714.64l.151 5.766a.684.684 0 0 1-.7.671z" class="cls-18" transform="translate(-575.981 -252.546)"/>
                                </g>
                                <g id="Group_4402" transform="translate(29.881 22.447)">
                                    <path id="Path_2209" d="M573.332 259.648a.7.7 0 0 1-.712-.594l-.405-3.976a.673.673 0 0 1 .646-.713.7.7 0 0 1 .779.591l.405 3.976a.675.675 0 0 1-.646.713c-.023.003-.045.003-.067.003z" class="cls-18" transform="translate(-572.211 -254.362)"/>
                                </g>
                                <path id="Path_2210" d="M503.226 234.982c-1.367 0-2.393-5.63 4.445-7.34s15.8 1.169 20.309 1.679 10.6.851 8 2.766-11.488 1.71-15.522 2.53-15.865.365-17.232.365z" class="cls-18" transform="translate(-502.228 -216.297)"/>
                                <path id="Path_2211" d="M575.569 253.095a2.149 2.149 0 0 0 .359-1.795" class="cls-19" transform="translate(-544.255 -230.161)"/>
                                <path id="Path_2212" d="M579.412 253.2a2.845 2.845 0 0 0 .178-1.9" class="cls-19" transform="translate(-546.457 -230.161)"/>
                                <path id="Path_2213" d="M583.341 251.638a1.711 1.711 0 0 0-.205-1.539" class="cls-19" transform="translate(-548.591 -229.473)"/>
                            </g>
                        </g>
                        <g id="Group_4405" transform="translate(19.849)">
                            <path id="Path_2214" d="M581.31 146.764s-4.11 5.833-16.016 6.175-15.94-.684-15.94-.684-2.8-19.967 3.35-26.942 16.069-5.238 19.83-1.969 4.513 8.875 4.171 12.226 1.189 6.393 2.735 8.788a13.928 13.928 0 0 0 1.87 2.406z" class="cls-7" transform="translate(-548.715 -120.487)"/>
                            <path id="Path_2215" d="M548.842 161.357a78.8 78.8 0 0 0 .513 14.038s4.035 1.026 15.94.684 16.016-6.175 16.016-6.175a13.926 13.926 0 0 1-1.87-2.4 16.147 16.147 0 0 1-2.7-6.63c-9.241 2.748-18.893 4.039-27.899.483z" transform="translate(-548.718 -143.627)" style="mix-blend-mode:multiply;isolation:isolate" fill="#134d97"/>
                            <path id="Path_2216" d="M576.871 147.243a17.183 17.183 0 0 0-.263-4.914c-1.1.651-2.23 1.257-3.388 1.806a23.28 23.28 0 0 1-22.541-3.279 32.809 32.809 0 0 0-1.674 9.033c9.006 3.556 18.658 2.265 27.895-.489a9.645 9.645 0 0 1-.029-2.157z" class="cls-9" transform="translate(-548.882 -132.159)"/>
                            <path id="Path_2217" d="M559.541 158.952s-2.347-2.774-3.383-.855.229 5.9 2.317 6.215a2.694 2.694 0 0 0 2.882-1.464z" class="cls-12" transform="translate(-552.769 -141.651)"/>
                            <path id="Path_2218" d="M609.122 153.467s1.02-2.9 2.461-.835.711 5.369-.112 5.829a8.8 8.8 0 0 1-2.556.642z" class="cls-12" transform="translate(-583.212 -138.483)"/>
                            <path id="Path_2219" d="M582.968 190.885l-.53-6.564h3.692l.667 5.949s.359.915-1.436 1.163-2.393-.548-2.393-.548z" class="cls-12" transform="translate(-568.039 -157.066)"/>
                            <path id="Path_2220" d="M566.3 133.666a12.081 12.081 0 0 0-2.348 6.2 21.674 21.674 0 0 0 .488 7.488c1.984 8 6.291 8.547 10.462 8.137s8.273-1.231 8.478-8.479c.109-3.842.179-8.019-1.894-11.42-2.166-3.555-7.144-6.244-11.284-4.736a8.636 8.636 0 0 0-3.902 2.81z" class="cls-18" transform="translate(-557.374 -126.181)"/>
                            <path id="Path_2221" d="M588.5 161.519c-.248-.4-.451-.35-.451.106v3.038c0 .455.346.622.769.37l.6-.355a.856.856 0 0 0 .318-1.181z" class="cls-12" transform="translate(-571.254 -143.846)"/>
                            <path id="Path_2222" d="M581.6 169.122c.968 3.783 6.1 4.193 6-.256" class="cls-19" transform="translate(-567.557 -148.21)"/>
                            <path id="Path_2223" d="M581.337 160.015c0 .883-.821.883-.821 0s.184-1.6.41-1.6.411.717.411 1.6z" class="cls-5" transform="translate(-566.938 -142.222)"/>
                            <path id="Path_2224" d="M594.549 159.289c0 .883-.82.883-.82 0s.184-1.6.41-1.6.41.717.41 1.6z" class="cls-5" transform="translate(-574.51 -141.806)"/>
                            <path id="Path_2225" d="M564.3 131.246a19.47 19.47 0 0 1 1.565 4.568c.118 1.514.727 4.35.727 4.35a78.065 78.065 0 0 0 9.6-.134c3.312-.413 5.968-.8 5.969-.8.208-.075-.062-3.563-.07-3.771a12.771 12.771 0 0 0-.732-4.206c-1.3-3.292-5.846-4.3-8.925-4.036-4.293.369-8.134 4.029-8.134 4.029z" class="cls-7" transform="translate(-557.644 -124.322)"/>
                            <path id="Path_2226" d="M571.781 165.522a3.015 3.015 0 0 1-4.264-4.264c1.178-1.177 2.711-.8 3.889.375s1.552 2.712.375 3.889z" class="cls-21" transform="translate(-558.983 -143.439)"/>
                            <path id="Path_2227" d="M600.849 160.152a2.778 2.778 0 1 1-3.928 3.929c-1.085-1.085-.739-2.5.345-3.583s2.499-1.43 3.583-.346z" class="cls-21" transform="translate(-575.96 -142.838)"/>
                            <path id="Path_2228" d="M581.337 160.015c0-.883-.184-1.6-.41-1.6s-.41.716-.41 1.6.82.885.82 0z" class="cls-16" transform="translate(-566.938 -142.222)"/>
                            <path id="Path_2229" d="M594.549 159.289c0-.883-.184-1.6-.41-1.6s-.41.716-.41 1.6.82.883.82 0z" class="cls-16" transform="translate(-574.51 -141.806)"/>
                            <path id="Path_2230" d="M578.385 152.167c3.312-.413 5.968-.8 5.969-.8a13.251 13.251 0 0 0-.02-3.01l-.15.075a22.676 22.676 0 0 1-16.045.215c.2 1.551.652 3.651.652 3.651a78.065 78.065 0 0 0 9.594-.131z" class="cls-9" transform="translate(-559.845 -136.459)"/>
                            <path id="Path_2231" d="M557.1 160.83c-.529-2.61 2.082-2.02 2.246.244.071.968-1.387 2.558.882 2.679" class="cls-19" transform="translate(-553.478 -142.62)"/>
                            <path id="Path_2232" d="M612.212 155.259c-.988-2.006-1.986-.731-2.058.7-.044.89 1.518 2.154-.353 2.732" class="cls-19" transform="translate(-583.719 -139.818)"/>
                            <path id="Path_2233" d="M568.962 163.257c1.07 1.344 2.145 2.666 3.334 3.9" class="cls-19" transform="translate(-560.317 -144.996)"/>
                            <path id="Path_2234" d="M571.965 162.657c.936.962 1.807 2.061 2.718 3.077" class="cls-19" transform="translate(-562.038 -144.652)"/>
                            <path id="Path_2235" d="M598.87 162.9c.8.857 1.659 1.659 2.462 2.513" class="cls-19" transform="translate(-577.456 -144.789)"/>
                            <path id="Path_2236" d="M601.513 160.855a27.115 27.115 0 0 0 1.9 2.257" class="cls-19" transform="translate(-578.97 -143.619)"/>
                        </g>
                    </g>
                    <g id="Group_4412" transform="translate(4.891)">
                        <g id="Group_4410" transform="translate(5.193 29.732)">
                            <g id="Group_4407" transform="translate(0 9.22)">
                                <path id="Path_2237" d="M386.372 222.527s-.6-16.2.907-19.782 3.09-4.557 3.09-4.557 5.735 4.826 5.387 9.394a85.455 85.455 0 0 0-.077 9.561z" class="cls-5" transform="translate(-386.137 -198.188)"/>
                                <path id="Path_2238" d="M386.379 247.575l5.407-3.128a25.684 25.684 0 0 1-5.519-2.548c.021 3.214.112 5.676.112 5.676z" class="cls-6" transform="translate(-386.144 -223.236)"/>
                                <path id="Path_2239" d="M395.757 212.4a6.759 6.759 0 0 0-.51-2.952 23.293 23.293 0 0 1-7.526-2.854c-.147.3-.295.62-.442.969-.92 2.186-1.055 9.071-1.02 14.107a25.682 25.682 0 0 0 5.519 2.548l3.9-2.256a85.455 85.455 0 0 1 .079-9.562z" class="cls-6" transform="translate(-386.138 -203.003)"/>
                                <path id="Path_2240" d="M389.5 253.177s-4.408-3.353-3.352-8.21 10.206-4.934 10.206-4.934z" class="cls-15" transform="translate(-385.98 -222.166)"/>
                                <path id="Path_2241" d="M416.035 239.738s-15.411-3.849-19.581 2.28a14.772 14.772 0 0 0-2.431 10.307s3.822.547 10.752-5.695c6.74-6.071 11.26-6.892 11.26-6.892z" class="cls-12" transform="translate(-390.507 -221.314)"/>
                                <path id="Path_2242" d="M396.128 247.851a14.752 14.752 0 0 0-2.106 9.806s3.822.547 10.752-5.695c1.041-.938 2.029-1.75 2.956-2.453a35.281 35.281 0 0 1-11.602-1.658z" transform="translate(-390.508 -226.646)" style="mix-blend-mode:multiply;isolation:isolate" fill="#ef5861" opacity="0.5"/>
                                <path id="Path_2243" d="M390.319 251.771a7.457 7.457 0 0 1 3.487-7.077" class="cls-13" transform="translate(-388.455 -224.837)"/>
                            </g>
                            <g id="Group_4408" transform="translate(4.071)">
                                <path id="Path_2244" d="M395.677 185.814s-1.547 13.805 4.951 15.122c3.484.705 6.422.193 7.862-.7a13.791 13.791 0 0 1 5.59-1.692 13.88 13.88 0 0 0 6.487-1.874 12.121 12.121 0 0 0 4.959-7.483c.527-3.32.709-12.151.709-12.151s-14.3-1.16-18.732.286-11.826 8.492-11.826 8.492z" class="cls-15" transform="translate(-395.516 -176.595)"/>
                                <path id="Path_2245" d="M400.67 212.261c3.484.705 6.422.193 7.862-.7a13.792 13.792 0 0 1 5.59-1.692 13.88 13.88 0 0 0 6.487-1.874 12.122 12.122 0 0 0 4.959-7.483c.16-1.009.288-2.528.389-4.153a36.053 36.053 0 0 1-9.391 5.626 27.546 27.546 0 0 1-20.977.041c.171 4.11 1.163 9.441 5.081 10.235z" class="cls-23" transform="translate(-395.558 -187.92)"/>
                                <path id="Path_2246" d="M414.851 185.523c2.677 2.409 8.039 1.631 9.436-1.847" class="cls-13" transform="translate(-406.596 -180.652)"/>
                                <path id="Path_2247" d="M407.644 201.934c5.221 3.151 10.209 5.731 16.411 5.128" class="cls-13" transform="translate(-402.466 -191.115)"/>
                                <path id="Path_2248" d="M427.1 202.233a7.517 7.517 0 0 0 2.359-2.461" class="cls-13" transform="translate(-413.616 -189.876)"/>
                            </g>
                            <g id="Group_4409" transform="translate(9.527 .44)">
                                <path id="Path_2249" d="M459.086 201.688s-4.219-11.916-2.55-17.615 3.484-6.466 4.441-6.447 4.927 1.732 6.016 13.9 1.265 15.8 1.265 15.8z" class="cls-5" transform="translate(-435.714 -177.625)"/>
                                <path id="Path_2250" d="M476.652 236.644s-.1-1.972-.579-7.852a39.828 39.828 0 0 1-5.279 4.253z" class="cls-6" transform="translate(-444.108 -206.945)"/>
                                <path id="Path_2251" d="M464.835 186.857a34.381 34.381 0 0 1-8.564 7.214 58.268 58.268 0 0 0 2.887 12.906l3.314 2.037a39.828 39.828 0 0 0 5.279-4.253c-.174-2.115-.4-4.73-.686-7.948a31.041 31.041 0 0 0-2.23-9.956z" class="cls-6" transform="translate(-435.786 -182.915)"/>
                                <path id="Path_2252" d="M451.932 234.194s6.033-4.628 10.4-2.558 4.407 4.687 4.367 7.015a5.3 5.3 0 0 1-1.881 3.766z" class="cls-15" transform="translate(-433.3 -208.27)"/>
                                <path id="Path_2253" d="M468.434 233.279a36.335 36.335 0 0 1-7.2 4.7l8.916 5.689a5.3 5.3 0 0 0 1.881-3.766c.035-2.186.004-4.622-3.597-6.623z" class="cls-23" transform="translate(-438.629 -209.517)"/>
                                <path id="Path_2254" d="M408.294 249.295s12.069-1.71 17.134-1.976c4.711-.247 14.363-1.575 14.385-1.578.3-.042-1.074-3.735-1.223-4.029a8.642 8.642 0 0 0-3.558-3.592 10.512 10.512 0 0 0-9.05-.375c-1.658.659-3.263 1.465-4.861 2.258-6.127 3.041-12.827 9.292-12.827 9.292z" class="cls-18" transform="translate(-408.294 -211.593)"/>
                                <path id="Path_2255" d="M462.176 234.445c3.438-1.073 7.954.818 8.513 4.616" class="cls-13" transform="translate(-439.17 -210.014)"/>
                                <path id="Path_2256" d="M415.807 244.6a79.008 79.008 0 0 0-7.513 6.055s12.069-1.71 17.134-1.976c4.711-.247 14.363-1.575 14.385-1.578.3-.042-1.074-3.735-1.223-4.029a8.642 8.642 0 0 0-3.558-3.592c-.129-.072-.261-.137-.392-.2a34.817 34.817 0 0 1-3.962 2.244 38.628 38.628 0 0 1-14.871 3.076z" transform="translate(-408.294 -212.955)" style="mix-blend-mode:multiply;isolation:isolate" fill="#fe899b" opacity="0.5"/>
                            </g>
                        </g>
                        <g id="Group_4411">
                            <path id="Path_2257" d="M381.472 143.4l-5.692-10.243 4.593-1.45z" class="cls-7" transform="translate(-374.942 -121.138)"/>
                            <path id="Path_2258" d="M384.507 150.8l-.485-5.154a22.514 22.514 0 0 1-2.946-1.019z" class="cls-9" transform="translate(-377.977 -128.546)"/>
                            <path id="Path_2259" d="M426.174 136.579s4.361-5.981 4.369-9.883a21.764 21.764 0 0 0-2.008-8.011l-4.895 6.17z" class="cls-7" transform="translate(-402.367 -113.678)"/>
                            <path id="Path_2260" d="M427.469 146.222s4.361-5.981 4.369-9.883c0-.274-.01-.55-.029-.826a29.962 29.962 0 0 1-5.909 3.451z" class="cls-9" transform="translate(-403.662 -123.321)"/>
                            <path id="Path_2261" d="M415.332 169.435l1.991 5.371a3.173 3.173 0 0 0 4.525-1.781l-2-6.119z" class="cls-12" transform="translate(-397.606 -141.311)"/>
                            <path id="Path_2262" d="M385.3 150.658s-2.15-2.4-2.943-2.4-2.917 1.957-.012 4.961 5.174 2 5.174 2z" class="cls-12" transform="translate(-377.852 -130.623)"/>
                            <path id="Path_2263" d="M426.766 139.091s.282-3.5.968-4.023 3.818-.225 3.28 4.293-3.169 5.142-3.169 5.142z" class="cls-12" transform="translate(-404.158 -122.957)"/>
                            <path id="Path_2264" d="M430.481 143.019c1.4-1.756-.764-2.184-.891-3.771-.229-2.851 2.4-2.721 2.078-.116" class="cls-19" transform="translate(-405.769 -124.256)"/>
                            <path id="Path_2265" d="M385.85 155.009c-.976-.374-1.2-1.152-1.352-2.088-.095-.575-.771-2.766-1.756-1.854a1.545 1.545 0 0 0 .046 2.047" class="cls-19" transform="translate(-378.716 -132.109)"/>
                            <path id="Path_2266" d="M392.813 143.11a9.886 9.886 0 0 0 7.611-.645 11.924 11.924 0 0 0 5.354-4.742s-2.249-15.842-4.277-18.259a7.928 7.928 0 0 0-10.611-.7c-3.617 2.913-6.052 6.544-3.336 14.106s5.259 10.24 5.259 10.24z" class="cls-18" transform="translate(-381.023 -112.743)"/>
                            <path id="Path_2267" d="M402.848 149.376c.117-.615.385-.671.6-.124 0 0 1.253 4.2.742 4.449-.407.2-2.149-.029-2.033-.645z" class="cls-12" transform="translate(-390.051 -130.979)"/>
                            <path id="Path_2268" d="M398.152 150.367c.164.868-.641 1.021-.807.153s-.118-1.6.105-1.647.537.627.702 1.494z" class="cls-5" transform="translate(-387.243 -130.976)"/>
                            <path id="Path_2269" d="M411 147.188c.165.868-.642 1.021-.807.153s-.118-1.605.105-1.648.534.627.702 1.495z" class="cls-5" transform="translate(-394.604 -129.155)"/>
                            <path id="Path_2270" d="M395.989 143.945a1.324 1.324 0 0 0-1.184.082c-.225.158-.488.536-.35.825.16.334.716.262 1.009.186.346-.091 1.271-.114 1.066-.6a.943.943 0 0 0-.541-.493z" class="cls-7" transform="translate(-385.621 -128.097)"/>
                            <path id="Path_2271" d="M405.581 141.135a1.235 1.235 0 0 1 1.488-.267c.569.473.209.94-.563 1.063-.239.038-1.044.324-1.218.075-.135-.193.162-.719.293-.871z" class="cls-7" transform="translate(-391.831 -126.301)"/>
                            <path id="Path_2272" d="M401.654 160.345c2.5 2.143 6 .987 6.412-2.255" class="cls-19" transform="translate(-389.768 -136.259)"/>
                            <path id="Path_2273" d="M381.448 118.258s2.549 1.789 4.956.429a4.09 4.09 0 0 0 1.518-2.61l2.631-1.7s1.406-.407 1.828 1.476.061 1.908 1.272 2.206 5.212-.117 5.986-1.55 1.2-4.332 0-4.783a22.533 22.533 0 0 0-3.54-.784 2.948 2.948 0 0 0 .38-1.617 7.686 7.686 0 0 0-.623-1.95l-1.567 3.018s-.794-4.535-5.883-3.175a23.331 23.331 0 0 0-8.729 4.684l-3.493.519a9.135 9.135 0 0 0 .318 1.674 4.594 4.594 0 0 0 .305.644l-2.844 1.049s.466 1.66 1.58 1.67l-1.726.98a2.35 2.35 0 0 0 2.113 1.357 35.392 35.392 0 0 0 5.518-1.537z" class="cls-7" transform="translate(-373.817 -106.961)"/>
                            <path id="Path_2274" d="M375.93 122.654a35.392 35.392 0 0 0 5.517-1.534s2.549 1.789 4.956.429a4.09 4.09 0 0 0 1.518-2.61l2.631-1.7s1.406-.407 1.828 1.476.061 1.908 1.272 2.206 5.212-.117 5.986-1.55 1.2-4.332 0-4.783a22.532 22.532 0 0 0-3.54-.784 2.949 2.949 0 0 0 .38-1.617c-.008-.074-.021-.151-.035-.228a26.417 26.417 0 0 1-6.017 4.09c-4.27 1.642-10.306 2.018-14.226-.616a7.892 7.892 0 0 0 .3 1.524 4.594 4.594 0 0 0 .305.644l-2.844 1.049s.466 1.66 1.58 1.67H375.98 375.541l-1.726.98a2.35 2.35 0 0 0 2.115 1.354z" class="cls-9" transform="translate(-373.817 -109.823)"/>
                            <path id="Path_2275" d="M392.991 154.946c.181-.586.392-1.2.615-1.778" class="cls-25" transform="translate(-384.804 -133.439)"/>
                            <path id="Path_2276" d="M394.752 156.181c.142-.573.448-1 .581-1.573" class="cls-25" transform="translate(-385.813 -134.264)"/>
                            <path id="Path_2277" d="M397.314 156.893c.033-.384.082-.8.137-1.162" class="cls-25" transform="translate(-387.281 -134.908)"/>
                            <path id="Path_2278" d="M412.769 151.329a14.793 14.793 0 0 1 .649-2.325" class="cls-25" transform="translate(-396.138 -131.053)"/>
                            <path id="Path_2279" d="M414.771 151.739c.255-.89.466-1.892.684-2.735" class="cls-25" transform="translate(-397.285 -131.053)"/>
                            <path id="Path_2280" d="M417.654 152.522c.038-.478.083-.955.137-1.436" class="cls-25" transform="translate(-398.937 -132.246)"/>
                            <path id="Path_2282" d="M378.2 131.541h.292z" class="cls-9" transform="translate(-376.33 -121.046)"/>
                        </g>
                    </g>
                </g>
            </g>
        </g>
    </g>
</svg>
