<svg xmlns="http://www.w3.org/2000/svg" width="300" height="300" viewBox="0 0 300 300">
    <defs>
        <style>
            .cls-4{fill:#f2f2f2}.cls-5{fill:#3f3d56}.cls-6{fill:#2f2e41}.cls-7{fill:#ffb8b8}
        </style>
    </defs>
    <g id="lawing" transform="translate(-1257 -2721)">
        <circle id="Ellipse_100" cx="150" cy="150" r="150" fill="rgba(112,112,112,0.2)" transform="translate(1257 2721)"/>
        <g id="lawing-2" transform="translate(1282 2777)" style="isolation:isolate">
            <path id="Path_2129" fill="#ffe600" d="M268.283 140.589c0 28.916-16.937 54.5-42.9 70.07a114.727 114.727 0 0 1-58.989 15.858c-29.286 0-51.625-11.079-68.429-28.05-15.489-15.639-26.274-36.285-33.46-57.878C32.425 44.181 86.016 17.88 166.394 54.661c51.177 23.421 101.889 38.473 101.889 85.928z" transform="translate(-55.067 -38.747)"/>
            <path id="Path_2130" d="M370.819 263.5v121.1a115.234 115.234 0 0 1-59.206 15.9c-29.393 0-51.814-11.109-68.68-28.126V263.5z" class="cls-4" transform="translate(-200.154 -212.499)"/>
            <path id="Path_2131" d="M295.184 506.061a80.012 80.012 0 0 1 20.662-3.684 64.669 64.669 0 0 1 10.536.412 65.894 65.894 0 0 1 10.225 2.189c3.3.957 6.564 2.062 9.858 3.056a91.937 91.937 0 0 0 10.189 2.486 86.368 86.368 0 0 0 10.352 1.234 63.048 63.048 0 0 0 10.339-.127 31.638 31.638 0 0 0 9.3-2.358 28.41 28.41 0 0 0 7.566-4.853q.842-.751 1.619-1.569c.306-.32-.18-.807-.486-.486a28.419 28.419 0 0 1-16.393 8.372 54.628 54.628 0 0 1-10.307.414 84.8 84.8 0 0 1-10.477-1.059 87.538 87.538 0 0 1-10.147-2.31c-3.275-.949-6.5-2.042-9.768-3.029a73.512 73.512 0 0 0-10.056-2.4 63.246 63.246 0 0 0-10.318-.716 78.891 78.891 0 0 0-20.391 3.02q-1.25.351-2.489.741c-.421.132-.241.8.183.663z" class="cls-5" transform="translate(-240.116 -395.848)"/>
            <path id="Path_2132" d="M295.184 582.061a80.006 80.006 0 0 1 20.662-3.684 64.676 64.676 0 0 1 10.536.412 65.9 65.9 0 0 1 10.225 2.189c3.3.957 6.564 2.062 9.858 3.056a91.978 91.978 0 0 0 10.189 2.486 86.367 86.367 0 0 0 10.352 1.234 63.049 63.049 0 0 0 10.34-.128 31.635 31.635 0 0 0 9.3-2.358 28.414 28.414 0 0 0 7.566-4.853q.842-.751 1.619-1.569c.306-.32-.18-.807-.486-.486a28.417 28.417 0 0 1-16.393 8.372 54.618 54.618 0 0 1-10.307.414 84.815 84.815 0 0 1-10.477-1.059 87.563 87.563 0 0 1-10.147-2.31c-3.275-.949-6.5-2.042-9.768-3.029a73.494 73.494 0 0 0-10.056-2.4 63.239 63.239 0 0 0-10.318-.716 78.885 78.885 0 0 0-20.391 3.02q-1.25.351-2.489.741c-.421.132-.241.8.183.663z" class="cls-5" transform="translate(-240.116 -454.479)"/>
            <path id="Path_2133" d="M295.184 437.061a80.01 80.01 0 0 1 20.662-3.684 64.672 64.672 0 0 1 10.536.412 65.916 65.916 0 0 1 10.225 2.189c3.305.957 6.564 2.062 9.858 3.056a91.937 91.937 0 0 0 10.189 2.486 86.368 86.368 0 0 0 10.352 1.234 63.048 63.048 0 0 0 10.339-.127 31.634 31.634 0 0 0 9.3-2.358 28.414 28.414 0 0 0 7.566-4.853q.842-.751 1.619-1.569c.306-.32-.18-.807-.486-.486a28.419 28.419 0 0 1-16.393 8.372 54.626 54.626 0 0 1-10.307.414 84.812 84.812 0 0 1-10.477-1.059 87.565 87.565 0 0 1-10.147-2.31c-3.275-.949-6.5-2.042-9.768-3.029a73.521 73.521 0 0 0-10.056-2.4 63.25 63.25 0 0 0-10.318-.716 78.887 78.887 0 0 0-20.391 3.02q-1.25.351-2.489.741c-.421.132-.241.8.183.663z" class="cls-5" transform="translate(-240.116 -342.616)"/>
            <path id="Path_2134" d="M291.26 317.44a8.246 8.246 0 0 1 5.3-.181c1.862.461 3.615 1.262 5.447 1.816a18.855 18.855 0 0 0 10.079.191A18.579 18.579 0 0 0 317.36 317c.374-.235.029-.83-.347-.594a18.218 18.218 0 0 1-9.7 2.765 17.8 17.8 0 0 1-5.077-.748c-1.819-.545-3.558-1.337-5.4-1.807a9.048 9.048 0 0 0-5.923.226c-.404.183-.054.776.347.598z" class="cls-5" transform="translate(-236.912 -252.812)"/>
            <circle id="Ellipse_49" cx="10.543" cy="10.543" r="10.543" class="cls-5" transform="translate(94.756 148.637)"/>
            <circle id="Ellipse_50" cx="5.73" cy="5.73" r="5.73" class="cls-4" transform="translate(42.915 18.508)"/>
            <circle id="Ellipse_51" cx="3.896" cy="3.896" r="3.896" class="cls-4" transform="translate(94.774 36.511)"/>
            <circle id="Ellipse_52" cx="3.896" cy="3.896" r="3.896" class="cls-4" transform="translate(31.826 73.764)"/>
            <path id="Rectangle_3531" d="M0 0H0.43V76.833H0z" class="cls-5" transform="translate(19.606 48.701)"/>
            <ellipse id="Ellipse_53" cx="8.378" cy="19.12" class="cls-5" rx="8.378" ry="19.12" transform="translate(11.525 80.659)"/>
            <ellipse id="Ellipse_54" cx="8.378" cy="19.12" class="cls-5" rx="8.378" ry="19.12" transform="translate(11.525 37.196)"/>
            <path id="Path_2135" d="M95.877 150.9l-.412-.123c.026-.087 2.552-8.743-1.6-14.315-2.343-3.147-6.362-4.743-11.948-4.743v-.43c5.729 0 9.866 1.655 12.293 4.918 4.282 5.75 1.69 14.608 1.667 14.693z" class="cls-5" transform="translate(-75.768 -110.083)"/>
            <circle id="Ellipse_55" cx="5.371" cy="5.371" r="5.371" class="cls-5" transform="translate(.784 16.054)"/>
            <path id="Path_2136" d="M812.292 654.488l-4.018 36.967H836l1.205-2.813 1.607 2.813h26.118s-2.009-38.173-5.625-39.379-47.013 2.412-47.013 2.412z" class="cls-6" transform="translate(-636.433 -511.828)"/>
            <circle id="Ellipse_56" cx="14.064" cy="14.064" r="14.064" class="cls-7" transform="translate(185.503 33.765)"/>
            <path id="Path_2137" d="M894.011 275.664s1.205 12.858 0 13.662 19.287.4 19.287.4-2.813-11.653 0-17.278z" class="cls-7" transform="translate(-702.351 -219.047)"/>
            <path id="Path_2138" fill="#d0cde1" d="M832.153 328.412s10.339 1.61 11.2-1.606l5.278 7.231.4 72.328s-42.995 5.224-44.6-3.215 16.469-75.139 16.469-75.139l4.552-.295s5.897.696 6.701.696z" transform="translate(-633.39 -261.1)"/>
            <path id="Path_2139" d="M771.757 316.375l-6.895 2.389-19.689 4.822.8 48.219s-16.877 48.219-9.242 51.835 18.484-4.822 21.7-10.849 14.469-89.607 14.469-91.214a26.166 26.166 0 0 0-1.143-5.202z" class="cls-5" transform="translate(-579.555 -253.254)"/>
            <path id="Path_2140" d="M969.689 316.375l2.723 2.389L991.7 327.6l-9.644 48.62s12.858 44.2 8.036 46.611-12.055 9.242-13.662 5.224-11.071-107.238-6.741-111.68z" class="cls-5" transform="translate(-759.987 -253.254)"/>
            <path id="Path_2141" d="M959.985 584.543s-18.082-7.635-18.484-.8 20.493 11.653 20.493 9.644-2.009-8.844-2.009-8.844z" class="cls-7" transform="translate(-739.122 -457.004)"/>
            <path id="Path_2142" d="M810.393 584.528s20.895 15.671 12.858 19.689-18.484-14.064-18.484-14.064z" class="cls-7" transform="translate(-633.533 -459.82)"/>
            <path id="Path_2143" d="M879.919 156.219a.776.776 0 0 1 .746-.443c-6.439-.385-13.22.365-18.607 3.913a20.352 20.352 0 0 1-4.635 2.769l1.394 1.093-1.666.508 2.451 1.584a2.125 2.125 0 0 1-2.023.678 3.683 3.683 0 0 1 2.248 2.3 10.9 10.9 0 0 1 .537 3.272 4.042 4.042 0 0 1 3.8-2.635 16.733 16.733 0 0 1 4.858.839 26.878 26.878 0 0 0 10.668.41c-1.2 2.418-.189 5.3.834 7.8l2.042 4.992c1.134.114 1.935-1.013 2.789-1.767.778-.687-2.32 5.358-1.841 5.136a90.708 90.708 0 0 0 7.509-8.164 18.676 18.676 0 0 0 2.122-9.051 13.2 13.2 0 0 0-3.429-8.532c-1.464-1.542-3.491-1.812-4.984-3.093-.588-.5-.59-.9-1.4-1.192a23.563 23.563 0 0 0-3.413-.417z" class="cls-6" transform="translate(-674.109 -128.884)"/>
            <path id="Path_2144" d="M703.611 349.044l-2.813-1.205-22.5 36.967s-4.018 9.644 3.215 14.064 24.109 17.68 24.109 17.68l9.644-14.867s-19.689-9.242-18.484-12.858 7.634-13.26 7.634-13.26z" class="cls-5" transform="translate(-535.131 -277.299)"/>
            <path id="Path_2145" d="M1016.988 361.865l5.224.8s21.7 42.593 16.475 50.63-26.52 19.287-26.52 19.287-.4-13.26-4.018-18.082l12.456-4.822-6.831-26.52z" class="cls-5" transform="translate(-790.498 -288.13)"/>
        </g>
    </g>
</svg>
