<svg xmlns="http://www.w3.org/2000/svg" width="300" height="300" viewBox="0 0 300 300">
    <defs>
        <style>
            .cls-2{fill:#3f3d56}.cls-3{fill:#f2f2f2}.cls-4{fill:#ccc}.cls-6{fill:#ffb8b8}.cls-7{fill:#2f2e41}
        </style>
    </defs>
    <g id="teaching" transform="translate(-849 -2721)">
        <circle id="Ellipse_99" cx="150" cy="150" r="150" fill="rgba(112,112,112,0.2)" transform="translate(849 2721)"/>
        <g id="Group_6306" transform="translate(726.267 2775.472)">
            <path id="Path_3605" d="M624.921 597.43l-4.431-34.338v-.053a3.745 3.745 0 0 1 3.741-3.741h43.231a3.745 3.745 0 0 1 3.741 3.741l-3.224 24.994-1.211 9.4a3.745 3.745 0 0 1-3.741 3.714h-34.365a3.745 3.745 0 0 1-3.741-3.714zm42.538-37.3h-43.231a2.913 2.913 0 0 0-2.91 2.884l3.217 24.914 1.214 9.422v.054a2.913 2.913 0 0 0 2.91 2.91h34.363a2.913 2.913 0 0 0 2.91-2.91l4.434-34.389a2.913 2.913 0 0 0-2.91-2.884z" class="cls-2" transform="translate(-347.565 -420.158)"/>
            <ellipse id="Ellipse_118" cx="23.278" cy="3.88" class="cls-3" rx="23.278" ry="3.88" transform="translate(275.001 141.773)"/>
            <path id="Path_3606" d="M667.139 482.066a65.194 65.194 0 0 0 4.826-24.849 67.842 67.842 0 0 0-4.755-24.891 63.524 63.524 0 0 0-6.738-12.607c-.379-.55.518-1.068.894-.523a65.984 65.984 0 0 1 10.106 23.653 68.934 68.934 0 0 1 .605 25.612 64.1 64.1 0 0 1-3.94 13.879c-.25.608-1.252.342-1-.275z" class="cls-4" transform="translate(-370.875 -338.16)"/>
            <path id="Path_3607" d="M686.781 449.508a8.135 8.135 0 0 0 1.786-5.679c-.013-2.4-.6-4.744-.715-7.133a9.638 9.638 0 0 1 1.473-6.089 5.553 5.553 0 0 1 4.718-2.614c4.152.233 6.085 5.008 6.684 8.494a19.678 19.678 0 0 1-12.477 21.889c-.623.238-.893-.763-.275-1a18.662 18.662 0 0 0 11.942-19.137 15.138 15.138 0 0 0-1.539-5.747 6.132 6.132 0 0 0-3.776-3.387 4.311 4.311 0 0 0-4.312 1.924 8.757 8.757 0 0 0-1.394 5.83c.247 4.409 2.032 9.681-1.383 13.381-.453.491-1.184-.243-.732-.732z" class="cls-4" transform="translate(-386.219 -343.43)"/>
            <path id="Path_3608" d="M662.2 497.038c-3.511-2.291-3.861-6.772-4.3-10.546a12.666 12.666 0 0 0-1.925-6.18c-1.079-1.457-2.906-2.71-4.8-2.371a4.834 4.834 0 0 0-3.412 3.176 12.434 12.434 0 0 0-.728 5.442 19.029 19.029 0 0 0 4.676 11.371 20.305 20.305 0 0 0 4.751 4.118 15.061 15.061 0 0 0 6.006 2.047c.654.077.662 1.114 0 1.036a16.356 16.356 0 0 1-5.77-1.759 19.256 19.256 0 0 1-4.723-3.627 20.61 20.61 0 0 1-5.824-11.632 15.865 15.865 0 0 1 .209-6.034 7.4 7.4 0 0 1 2.851-4.453 5.065 5.065 0 0 1 5.428.074 8.558 8.558 0 0 1 3.625 5.071c.729 2.524.678 5.18 1.216 7.739.452 2.148 1.334 4.386 3.245 5.634.556.363.038 1.26-.523.894z" class="cls-4" transform="translate(-362.444 -371.997)"/>
            <path id="Path_3609" d="M605.5 356.795a17.459 17.459 0 1 1 17.459 17.459 17.459 17.459 0 0 1-17.459-17.459zm.831 0a16.627 16.627 0 1 0 16.627-16.627 16.627 16.627 0 0 0-16.623 16.627z" class="cls-2" transform="translate(-338.81 -291.631)"/>
            <path id="Path_3616" fill="#6c63ff" fill-rule="evenodd" d="M877.839 412.795a11.413 11.413 0 1 0-13.2 11.275v-7.975h-2.9v-3.3h2.9v-2.515c0-2.86 1.7-4.441 4.311-4.441a17.535 17.535 0 0 1 2.555.223v2.809h-1.44a1.65 1.65 0 0 0-1.86 1.783v2.146h3.165l-.505 3.3h-2.66v7.975a11.416 11.416 0 0 0 9.634-11.28z" transform="translate(-581.871 -347.008)"/>
            <path id="Path_3617" d="M411.222 658.381c0 .229-.119.415-.266.416h-214.69c-.147 0-.266-.186-.266-.416s.119-.416.266-.416h214.69c.144.001.266.186.266.416z" class="cls-2" transform="translate(-30.901 -477.811)"/>
            <path id="Path_3626" d="M373.136 377.482l4.872-1.5-3.449-19.5-7.19 2.206z" class="cls-6" transform="translate(-118.189 -201.872)"/>
            <path id="Path_3627" d="M0 0h16.017v6.188H6.188A6.188 6.188 0 0 1 0 0z" class="cls-7" transform="translate(270.603 175.757) rotate(162.939)"/>
            <path id="Path_3628" d="M281.243 379.637h5.1l2.425-19.657h-7.522z" class="cls-6" transform="translate(-67.864 -203.915)"/>
            <path id="Path_3629" d="M0 0h16.017v6.188H6.188A6.188 6.188 0 0 1 0 0z" class="cls-7" transform="translate(228.303 180.455) rotate(179.997)"/>
            <path id="Path_3630" d="M474.541 432.079a3.809 3.809 0 0 1 .132-5.839l3.951-49.755 8.036 2.008-6.434 48.535a3.829 3.829 0 0 1-5.685 5.051z" class="cls-6" transform="translate(-261.527 -313.338)"/>
            <circle id="Ellipse_121" cx="10.21" cy="10.21" r="10.21" class="cls-6" transform="translate(218.895 23.431)"/>
            <path id="Path_3631" d="M491.272 352.989a8.64 8.64 0 0 1 .107-10.543c1.619-1.974 4.328-3.554 8.851-3.554a18.545 18.545 0 0 1 16.627 9.561s4.988 9.145 2.078 17.459-2.91 9.145-2.91 9.145l-19.125-1.664s3.23-8.244-5.628-20.404z" class="cls-4" transform="translate(-271.044 -291.371)"/>
            <path id="Path_3632" d="M479.534 367.359l4.119-13.477a6.444 6.444 0 0 1 9.116-3.843 6.455 6.455 0 0 1 2.946 8.318l-5.237 11.927z" class="cls-4" transform="translate(-265.203 -297.466)"/>
            <path id="Path_3633" d="M506.145 420.891l16.212 83.968-8.729 2.494-21.2-55.286-9.561 56.533-9.145 1.247s-4.011-74.8 13.718-88.541z" class="cls-7" transform="translate(-261.58 -339.285)"/>
            <path id="Path_3634" d="M542.064 406.223a6.577 6.577 0 0 1-6.2-4.384l-4.681-13.025 7.268-3.454 3.989 12.178 20.324-.985a4.409 4.409 0 0 1 .361-.493 4.573 4.573 0 0 1 6.543-.43 4.628 4.628 0 0 1 .5 6.261 4.573 4.573 0 0 1-6.529.615 4.251 4.251 0 0 1-.325-.31l-19.95 3.9a6.755 6.755 0 0 1-1.3.127z" class="cls-6" transform="translate(-295.38 -318.523)"/>
            <path id="Path_3635" d="M524.81 354.679a6.443 6.443 0 0 1 6.8-7.184 6.455 6.455 0 0 1 6.042 6.431v13.025l-11.2 1.723z" class="cls-4" transform="translate(-291.633 -296.391)"/>
            <path id="Path_3636" d="M499.272 297.547a2.97 2.97 0 0 1-2.646-3.151 5.211 5.211 0 0 1 2.336-3.78 25.328 25.328 0 0 1 4.073-2.115 8.685 8.685 0 0 0 3.6-2.764 6.117 6.117 0 0 0 .425-5.614 9.007 9.007 0 0 0-3.88-4.25 11.8 11.8 0 0 0-15.633 3.43l-1.749 4.763a7.788 7.788 0 0 0-.969 7.89 10.191 10.191 0 0 0 6.061 5.409 14.879 14.879 0 0 0 8.248.247" class="cls-7" transform="translate(-267.922 -253.605)"/>
            <path id="Path_3637" d="M454.43 287.947a6.232 6.232 0 0 0-3.4-2.422 10.693 10.693 0 0 0-14.064 9.562c-.143 2.625.679 5.192 1.162 7.775s.579 5.438-.846 7.647a11.431 11.431 0 0 1-4.681 3.647 9.029 9.029 0 0 1-4.761 1.311c-1.662-.15-3.332-1.467-3.288-3.135a13.324 13.324 0 0 0-1.115 3.775 4.5 4.5 0 0 0 1.154 3.642c1.377 1.33 3.559 1.232 5.452.945 4.1-.621 8.246-1.786 11.483-4.373s5.385-6.848 4.533-10.9a26.8 26.8 0 0 0-1.869-4.834 9 9 0 0 1-.894-5.04 6.125 6.125 0 0 1 3.115-4.149 8.148 8.148 0 0 1 5.205-.789c1.164.191 2.616.487 3.306-.469a1.874 1.874 0 0 0-.039-2 5.507 5.507 0 0 0-1.493-1.48" class="cls-7" transform="translate(-232.411 -259.867)"/>
            <circle id="Ellipse_122" cx="2.688" cy="2.688" r="2.688" class="cls-3" transform="translate(293.056 11)"/>
            <circle id="Ellipse_123" cx="2.688" cy="2.688" r="2.688" class="cls-3" transform="translate(293.056 21.714)"/>
            <circle id="Ellipse_124" cx="2.688" cy="2.688" r="2.688" class="cls-3" transform="translate(293.056 32.427)"/>
            <circle id="Ellipse_125" cx="2.688" cy="2.688" r="2.688" class="cls-3" transform="translate(293.056 43.141)"/>
            <circle id="Ellipse_126" cx="2.688" cy="2.688" r="2.688" class="cls-3" transform="translate(304.279 11)"/>
            <circle id="Ellipse_127" cx="2.688" cy="2.688" r="2.688" class="cls-3" transform="translate(304.279 21.714)"/>
            <circle id="Ellipse_128" cx="2.688" cy="2.688" r="2.688" class="cls-3" transform="translate(304.279 32.427)"/>
            <circle id="Ellipse_129" cx="2.688" cy="2.688" r="2.688" class="cls-3" transform="translate(304.279 43.141)"/>
            <circle id="Ellipse_130" cx="2.688" cy="2.688" r="2.688" class="cls-3" transform="translate(315.503 11)"/>
            <circle id="Ellipse_131" cx="2.688" cy="2.688" r="2.688" class="cls-3" transform="translate(315.503 21.714)"/>
            <circle id="Ellipse_132" cx="2.688" cy="2.688" r="2.688" class="cls-3" transform="translate(315.503 32.427)"/>
            <circle id="Ellipse_133" cx="2.688" cy="2.688" r="2.688" class="cls-3" transform="translate(315.503 43.141)"/>
            <circle id="Ellipse_134" cx="2.688" cy="2.688" r="2.688" class="cls-3" transform="translate(326.726 11)"/>
            <circle id="Ellipse_135" cx="2.688" cy="2.688" r="2.688" class="cls-3" transform="translate(326.726 21.714)"/>
            <circle id="Ellipse_136" cx="2.688" cy="2.688" r="2.688" class="cls-3" transform="translate(326.726 32.427)"/>
            <circle id="Ellipse_137" cx="2.688" cy="2.688" r="2.688" class="cls-3" transform="translate(326.726 43.141)"/>
            <circle id="Ellipse_138" cx="2.688" cy="2.688" r="2.688" class="cls-3" transform="translate(337.95 11)"/>
            <circle id="Ellipse_139" cx="2.688" cy="2.688" r="2.688" class="cls-3" transform="translate(337.95 21.714)"/>
            <circle id="Ellipse_140" cx="2.688" cy="2.688" r="2.688" class="cls-3" transform="translate(337.95 32.427)"/>
            <circle id="Ellipse_141" cx="2.688" cy="2.688" r="2.688" class="cls-3" transform="translate(337.95 43.141)"/>
            <circle id="Ellipse_142" cx="2.688" cy="2.688" r="2.688" class="cls-3" transform="translate(349.173 11)"/>
            <circle id="Ellipse_143" cx="2.688" cy="2.688" r="2.688" class="cls-3" transform="translate(349.173 21.714)"/>
            <circle id="Ellipse_144" cx="2.688" cy="2.688" r="2.688" class="cls-3" transform="translate(349.173 32.427)"/>
            <circle id="Ellipse_145" cx="2.688" cy="2.688" r="2.688" class="cls-3" transform="translate(349.173 43.141)"/>
        </g>
    </g>
</svg>
