<svg xmlns="http://www.w3.org/2000/svg" width="40" height="40" viewBox="0 0 40 40">
    <g>
        <path fill="#707070" fill-rule="evenodd" d="M16.543 2.941a50.725 50.725 0 0 1 6.617.184 8.526 8.526 0 0 1 3.125.551A6.455 6.455 0 0 1 29.41 6.8a8.526 8.526 0 0 1 .551 3.125c0 1.654.184 2.206.184 6.617a50.725 50.725 0 0 1-.184 6.617 8.526 8.526 0 0 1-.551 3.125 6.455 6.455 0 0 1-3.125 3.125 8.526 8.526 0 0 1-3.125.551c-1.654 0-2.206.184-6.617.184a50.725 50.725 0 0 1-6.617-.184 8.526 8.526 0 0 1-3.126-.55 6.455 6.455 0 0 1-3.125-3.125 8.526 8.526 0 0 1-.551-3.125c0-1.654-.184-2.206-.184-6.617a50.725 50.725 0 0 1 .184-6.617A8.526 8.526 0 0 1 3.676 6.8a6.6 6.6 0 0 1 1.287-1.837A3.108 3.108 0 0 1 6.8 3.676a8.526 8.526 0 0 1 3.125-.551 50.725 50.725 0 0 1 6.617-.184m0-2.941a54.312 54.312 0 0 0-6.8.184A11.348 11.348 0 0 0 5.7.919a7.2 7.2 0 0 0-2.943 1.838A7.2 7.2 0 0 0 .919 5.7a8.375 8.375 0 0 0-.735 4.042A54.312 54.312 0 0 0 0 16.543a54.312 54.312 0 0 0 .184 6.8 11.348 11.348 0 0 0 .735 4.044 7.2 7.2 0 0 0 1.838 2.941A7.2 7.2 0 0 0 5.7 32.167a11.348 11.348 0 0 0 4.044.735 54.312 54.312 0 0 0 6.8.184 54.312 54.312 0 0 0 6.8-.184 11.348 11.348 0 0 0 4.044-.735 7.712 7.712 0 0 0 4.779-4.779 11.348 11.348 0 0 0 .735-4.044c0-1.838.184-2.39.184-6.8a54.312 54.312 0 0 0-.184-6.8 11.348 11.348 0 0 0-.735-4.044 7.2 7.2 0 0 0-1.838-2.941 7.2 7.2 0 0 0-2.941-1.84 11.348 11.348 0 0 0-4.044-.735A54.312 54.312 0 0 0 16.543 0m0 8.088a8.319 8.319 0 0 0-8.455 8.455 8.455 8.455 0 1 0 8.455-8.455m0 13.97a5.416 5.416 0 0 1-5.514-5.514 5.416 5.416 0 0 1 5.514-5.514 5.416 5.416 0 0 1 5.514 5.514 5.416 5.416 0 0 1-5.514 5.514M25.366 5.7a2.022 2.022 0 1 0 2.022 2.02 2.04 2.04 0 0 0-2.022-2.02" transform="translate(.296) translate(3.309 3.309)"/>
    </g>
</svg>
