<svg xmlns="http://www.w3.org/2000/svg" width="516.582" height="507.993" viewBox="0 0 516.582 507.993">
    <defs>
        <clipPath id="clip-path">
            <path id="Path_3093" d="M144.234 420.824l14.632 43.9a5.977 5.977 0 0 0 5.67 4.087h22.809a5.975 5.975 0 0 0 5.488-3.611l10.2-23.674" class="cls-1" transform="translate(-144.234 -420.824)"/>
        </clipPath>
        <clipPath id="clip-path-2">
            <path id="Path_3098" d="M289.035 420.824l-14.633 43.9a5.977 5.977 0 0 1-5.67 4.087h-22.809a5.975 5.975 0 0 1-5.488-3.611l-10.2-23.674" class="cls-1" transform="translate(-230.231 -420.824)"/>
        </clipPath>
        <clipPath id="clip-path-3">
            <ellipse id="Ellipse_113" cx="125.45" cy="113.764" class="cls-1" rx="125.45" ry="113.764"/>
        </clipPath>
        <clipPath id="clip-path-4">
            <path id="Path_3114" d="M179.764 433.2l12.765 30.272a5.977 5.977 0 0 0 5.507 3.654H221.2a5.975 5.975 0 0 0 5.482-3.6l13.963-32.156-.6-.031" class="cls-1" transform="translate(-179.764 -431.344)"/>
        </clipPath>
        <clipPath id="clip-path-5">
            <path id="Path_3118" d="M407.922 26.5l-64.14 92.412S338.3 132 331.545 141.7 305.8 161.113 305.8 161.113s-1.687 18.145-7.174 24.474-17.3 2.532-17.3 2.532-5.063 5.485-10.55 8.017-22.365-6.752-22.365-6.752 15.192 16.457 17.3 21.944 5.908 10.127-.844 15.191-14.347-2.111-14.347-2.111 3.376 10.972-6.33 13.081-20.25-18.989-24.469-26.16-16.457-34.18-18.567-35.446-5.064-8.017-.844-14.347 34.18-46.839 37.556-49.794S305.8 93.6 305.8 93.6l24.474-67.516" class="cls-2" transform="translate(-198.166 -26.081)"/>
        </clipPath>
        <clipPath id="clip-path-6">
            <path id="Path_3127" d="M224.435 129.927s5.063 7.595 5.908 14.347a24.6 24.6 0 0 1-3.8 16.457c-2.532 3.8-5.063 7.173-7.174 13.08s-2.532 14.348-5.485 18.568-4.642 8.439-.422 12.237 15.191 3.375 21.1-7.6 9.706-22.787 13.5-27.006 16.038-13.922 16.038-13.922 33.336-4.641 39.665-10.549 11.816-21.939 11.816-21.939" class="cls-2" transform="translate(-210.928 -123.597)"/>
        </clipPath>
        <style>
            .cls-1,.cls-3{fill:#92dc6a}.cls-1,.cls-14,.cls-2,.cls-4,.cls-8,.cls-9{stroke:#263238}.cls-1,.cls-12,.cls-14,.cls-2,.cls-8,.cls-9{stroke-linecap:round;stroke-linejoin:round}.cls-16,.cls-2{fill:#fff}.cls-12,.cls-14,.cls-4,.cls-8{fill:none}.cls-4{stroke-miterlimit:10}.cls-5,.cls-9{fill:#263238}.cls-6{opacity:.3}.cls-12{stroke:#92dc6a;stroke-width:2px}.cls-14{stroke-width:3px}.cls-18{opacity:.2}
        </style>
    </defs>
    <g id="Group_4746" transform="translate(0 .64)">
        <g id="Background_Simple" transform="translate(0 9.039)">
            <g id="Group_4718">
                <path id="Path_3084" d="M187.483 64.144S99.617 109.013 55.789 178.161 15.43 336.175 68.687 402.223s155.045 57.346 240.266 99.163 179.262 33.214 219.556-55.394S508.046 324.284 497.6 221.75 394.932-30.931 187.483 64.144z" class="cls-3" transform="translate(-25.573 -33.875)"/>
            </g>
        </g>
        <g id="Plants" transform="translate(380.911 219.245)">
            <g id="Group_4721">
                <g id="Group_4720">
                    <g id="Group_4719">
                        <path id="Path_3086" d="M393.715 436.316s-49.375-86.715-37.98-108.76 40.512 17.637 40.512 17.637-25.32-80.836-11.394-116.111 37.98 0 39.246 24.986-5.063 67.608-5.063 67.608 10.128-88.185 34.182-61.729-30.384 114.64-30.384 114.64 36.714-20.577 35.448 5.879-44.31 49.972-44.31 49.972" class="cls-3" transform="translate(-354.028 -214.2)"/>
                        <path id="Path_3087" d="M392.682 414.879s-45.692-42.624-23.432-61.73 33.976 20.577 33.976 20.577-24.6-121.989 15.23-126.4S429 353.15 429 353.15s33.977-47.032 31.633-8.818-52.721 70.548-52.721 70.548" class="cls-4" transform="translate(-352.573 -208.929)"/>
                    </g>
                    <path id="Line_172" d="M30.881 33.455L0 0" class="cls-4" transform="translate(31.669 164.737)"/>
                    <path id="Line_173" d="M0 97.791L8.364 0" class="cls-4" transform="translate(56.117 102.974)"/>
                    <path id="Line_174" d="M0 36.672L27.665 0" class="cls-4" transform="translate(54.83 157.016)"/>
                </g>
                <path id="Path_3088" d="M447.572 375.332h-85.41l8.541 100.74h68.328z" class="cls-5" transform="translate(-352.729 -188.466)"/>
            </g>
        </g>
        <g id="Piggy_Bank" transform="translate(77.904 260.217)">
            <g id="Group_4738">
                <g id="Group_4722" transform="translate(0 12.91)">
                    <path id="Path_3089" d="M164.537 276.819a261.325 261.325 0 0 0-34.351-13.919c-16.959-5.217-36.961-.435-37.4 5.219s2.608 3.044 6.522 9.132 2.174 20.438 7.827 33.482 22.616 19.567 22.616 19.567z" class="cls-1" transform="translate(-92.748 -260.661)"/>
                    <path id="Path_3090" d="M152.806 288.794s-26.09-16.525-41.309-22.177-16.09 2.609-16.09 2.609a12.61 12.61 0 0 1 8.273 12.317c0 9.765 4.882 29.99 16.739 34.174s32.387-26.923 32.387-26.923z" class="cls-6" transform="translate(-92.323 -260.026)"/>
                </g>
                <ellipse id="Ellipse_111" cx="13.212" cy="14.183" class="cls-1" rx="13.212" ry="14.183" transform="rotate(-20.8 216.52 -591.727)"/>
                <g id="Group_4724" transform="translate(59.708 198.652)">
                    <path id="Path_3091" d="M144.234 420.824l14.632 43.9a5.977 5.977 0 0 0 5.67 4.087h22.809a5.975 5.975 0 0 0 5.488-3.611l10.2-23.674" class="cls-3" transform="translate(-144.234 -420.824)"/>
                    <g id="Group_4723" clip-path="url(#clip-path)">
                        <path id="Path_3092" d="M150.557 420.824l12.136 43.9a5.135 5.135 0 0 0 4.7 4.087h18.918a5.025 5.025 0 0 0 4.552-3.611l8.464-23.674" class="cls-6" transform="translate(-143.224 -420.824)"/>
                    </g>
                    <path id="Path_3094" d="M144.234 420.824l14.632 43.9a5.977 5.977 0 0 0 5.67 4.087h22.809a5.975 5.975 0 0 0 5.488-3.611l10.2-23.674" class="cls-8" transform="translate(-144.234 -420.824)"/>
                </g>
                <path id="Path_3095" d="M247.253 420.824l-14.632 43.9a5.979 5.979 0 0 1-5.671 4.087h-22.808a5.977 5.977 0 0 1-5.489-3.611l-10.2-23.674" class="cls-9" transform="translate(-77.464 -222.172)"/>
                <g id="Group_4726" transform="translate(159.439 198.652)">
                    <path id="Path_3096" d="M289.035 420.824l-14.633 43.9a5.977 5.977 0 0 1-5.67 4.087h-22.809a5.975 5.975 0 0 1-5.488-3.611l-10.2-23.674" class="cls-3" transform="translate(-230.231 -420.824)"/>
                    <g id="Group_4725" clip-path="url(#clip-path-2)">
                        <path id="Path_3097" d="M277.91 420.824l-10 43.9c-.557 2.44-2.118 4.087-3.877 4.087h-15.597c-1.632 0-3.107-1.419-3.753-3.611l-9.691-23.179" class="cls-6" transform="translate(-229.47 -420.824)"/>
                    </g>
                    <path id="Path_3099" d="M289.035 420.824l-14.633 43.9a5.977 5.977 0 0 1-5.67 4.087h-22.809a5.975 5.975 0 0 1-5.488-3.611l-10.2-23.674" class="cls-8" transform="translate(-230.231 -420.824)"/>
                </g>
                <g id="Group_4728" transform="translate(14.583)">
                    <ellipse id="Ellipse_112" cx="125.45" cy="113.764" class="cls-3" rx="125.45" ry="113.764"/>
                    <g id="Group_4727" clip-path="url(#clip-path-3)">
                        <path id="Path_3100" d="M313.712 280.6a104.519 104.519 0 0 1 11.2 47.048c0 62.83-56.166 113.764-125.45 113.764a133.8 133.8 0 0 1-72.77-21.087c21.876 29.357 58.9 48.667 100.909 48.667 67.227 0 121.725-49.421 121.725-110.385 0-30.465-13.612-58.04-35.614-78.007z" class="cls-6" transform="translate(-101.91 -244.567)"/>
                    </g>
                    <ellipse id="Ellipse_114" cx="125.45" cy="113.764" class="cls-8" rx="125.45" ry="113.764"/>
                </g>
                <g id="Group_4729" transform="translate(225.72 88.639)">
                    <path id="Path_3101" d="M316.591 356.428c-2.738 22.92-13.3 43.713-29.207 60.138" class="cls-12" transform="translate(-287.384 -321.095)"/>
                    <path id="Path_3102" d="M310.779 325.961a99.8 99.8 0 0 1 2.781 23.439" class="cls-12" transform="translate(-283.648 -325.961)"/>
                </g>
                <path id="Path_3103" fill="none" stroke="#263238" stroke-linecap="round" stroke-linejoin="round" stroke-width="4px" d="M186.675 256.154a139.322 139.322 0 0 1 51.844-2.143" transform="translate(-77.748 -249.05)"/>
                <g id="Group_4733" transform="translate(103.917 10.196)">
                    <path id="Path_3104" d="M243.088 334.639s12.175-8.262 12.609-23.48-19.568-37.4-35.656-46.527-27.829-7.393-28.264-.87-6.087 13.914-8.262 26.525-3.044 31.307 13.915 37.4" class="cls-1" transform="translate(-182.355 -258.321)"/>
                    <path id="Path_3105" d="M216.306 329.228c.845.127 1.68.248 2.5.366 10.688 1.539 14.449-5.44 14.14-15.926-.435-14.784-20-46.092-28.264-50.44s-10.871 1.74-10.871 1.74 1.141.779-2.912 14.29c-1.871 6.238-8.868 27.985-1.943 37.637 6.122 8.528 17.499 10.854 27.35 12.333z" class="cls-6" transform="translate(-181.779 -257.787)"/>
                    <g id="Group_4732" transform="translate(50.587 19.87)">
                        <g id="Group_4730">
                            <path id="Path_3106" d="M244.532 311.974a1.184 1.184 0 0 1-.157-.01 1.16 1.16 0 0 1-1-1.3 25.816 25.816 0 0 0 .218-2.7c.231-8.075-6.39-19.772-17.278-30.526a1.16 1.16 0 0 1 1.631-1.651c11.5 11.362 18.219 23.416 17.966 32.243a28.211 28.211 0 0 1-.238 2.938 1.159 1.159 0 0 1-1.142 1.006z" class="cls-6" transform="translate(-225.976 -275.454)"/>
                        </g>
                        <g id="Group_4731" transform="translate(11.182 40.14)">
                            <path id="Path_3107" d="M236.777 320.493a1.16 1.16 0 0 1-.9-1.89 28.373 28.373 0 0 0 4.523-7.786 1.16 1.16 0 0 1 2.169.822 30.666 30.666 0 0 1-4.889 8.424 1.156 1.156 0 0 1-.903.43z" class="cls-6" transform="translate(-235.618 -310.067)"/>
                        </g>
                    </g>
                </g>
                <g id="Group_4734" transform="translate(8.72 91.934)">
                    <ellipse id="Ellipse_115" cx="25.655" cy="33.917" class="cls-6" rx="25.655" ry="33.917" transform="rotate(-75.994 34.286 25.094)"/>
                    <ellipse id="Ellipse_116" cx="25.655" cy="33.917" class="cls-1" rx="25.655" ry="33.917" transform="rotate(-76 31.874 24.9)"/>
                    <path id="Path_3108" d="M126.02 354.544c.209 3.115-.982 5.731-2.659 5.844s-3.207-2.321-3.415-5.436.982-5.732 2.659-5.844 3.206 2.321 3.415 5.436z" class="cls-8" transform="translate(-97.128 -325.56)"/>
                    <path id="Path_3109" d="M145.811 359.519c.209 3.115-.982 5.731-2.659 5.844s-3.207-2.322-3.415-5.437.982-5.731 2.659-5.844 3.204 2.318 3.415 5.437z" class="cls-8" transform="translate(-93.967 -324.766)"/>
                </g>
                <g id="Group_4735" transform="translate(42.407 133.041)">
                    <path id="Path_3110" d="M185.439 365.719a27.552 27.552 0 0 1-1.549 6.528c-6.665 17.988-30.754 25.773-54.575 18.023" class="cls-14" transform="translate(-129.315 -364.014)"/>
                    <path id="Line_175" d="M0 0L7.392 0" class="cls-14" transform="translate(52.235)"/>
                </g>
                <path id="Path_3111" d="M134.7 323.682c-.816 3.385-2.9 5.787-4.648 5.365s-2.508-3.508-1.693-6.893 2.9-5.788 4.648-5.366 2.51 3.512 1.693 6.894z" class="cls-9" transform="translate(-87.113 -238.795)"/>
                <ellipse id="Ellipse_117" cx="6.305" cy="3.261" class="cls-9" rx="6.305" ry="3.261" transform="rotate(-76.47 90.352 8.273)"/>
                <g id="Group_4737" transform="translate(100.913 210.852)">
                    <path id="Path_3112" d="M179.764 433.2l12.765 30.272a5.977 5.977 0 0 0 5.507 3.654H221.2a5.975 5.975 0 0 0 5.482-3.6l13.963-32.156-.6-.031" class="cls-3" transform="translate(-179.764 -431.344)"/>
                    <g id="Group_4736" clip-path="url(#clip-path-4)">
                        <path id="Path_3113" d="M206.168 429.846c-7.356 0-15.918.963-22.84-.639l11.93 34.71a5.018 5.018 0 0 0 4.547 3.654h19.127a5 5 0 0 0 4.527-3.6l11.531-35.407-4.688.639c-14.702 1.602-14.312.643-24.134.643z" class="cls-6" transform="translate(-179.195 -431.787)"/>
                    </g>
                    <path id="Path_3115" d="M179.764 433.2l12.765 30.272a5.977 5.977 0 0 0 5.507 3.654H221.2a5.975 5.975 0 0 0 5.482-3.6l13.963-32.156-.6-.031" class="cls-8" transform="translate(-179.764 -431.344)"/>
                </g>
            </g>
        </g>
        <g id="Hand" transform="translate(174.451)">
            <g id="Group_4744">
                <g id="Group_4740" transform="translate(25.706)">
                    <path id="Path_3116" d="M407.922 26.5l-64.14 92.412S338.3 132 331.545 141.7 305.8 161.113 305.8 161.113s-1.687 18.145-7.174 24.474-17.3 2.532-17.3 2.532-5.063 5.485-10.55 8.017-22.365-6.752-22.365-6.752 15.192 16.457 17.3 21.944 5.908 10.127-.844 15.191-14.347-2.111-14.347-2.111 3.376 10.972-6.33 13.081-20.25-18.989-24.469-26.16-16.457-34.18-18.567-35.446-5.064-8.017-.844-14.347 34.18-46.839 37.556-49.794S305.8 93.6 305.8 93.6l24.474-67.516" class="cls-16" transform="translate(-198.166 -26.081)"/>
                    <g id="Group_4739" clip-path="url(#clip-path-5)">
                        <path id="Path_3117" d="M336.047 112.383s-6.958 20.875-14.5 24.934-50.447 15.076-67.263 12.757-26.093-8.7-26.093-8.7-9.278 12.177-13.337 16.236a26.6 26.6 0 0 1-9.857 5.8s20.179 50.694 34.691 66.382a6.94 6.94 0 0 0 3.413.159c9.706-2.109 6.33-13.081 6.33-13.081s7.595 7.174 14.347 2.111 2.954-9.706.844-15.192-17.3-21.943-17.3-21.943 16.88 9.285 22.365 6.752 10.55-8.017 10.55-8.017 11.815 3.8 17.3-2.532 7.174-24.474 7.174-24.474 18.989-9.706 25.741-19.411 12.237-22.787 12.237-22.787l26.43-38.077z" class="cls-18" transform="translate(-197.075 -18.54)"/>
                    </g>
                    <path id="Path_3119" d="M407.922 26.5l-64.14 92.412S338.3 132 331.545 141.7 305.8 161.113 305.8 161.113s-1.687 18.145-7.174 24.474-17.3 2.532-17.3 2.532-5.063 5.485-10.55 8.017-22.365-6.752-22.365-6.752 15.192 16.457 17.3 21.944 5.908 10.127-.844 15.191-14.347-2.111-14.347-2.111 3.376 10.972-6.33 13.081-20.25-18.989-24.469-26.16-16.457-34.18-18.567-35.446-5.064-8.017-.844-14.347 34.18-46.839 37.556-49.794S305.8 93.6 305.8 93.6l24.474-67.516" class="cls-8" transform="translate(-198.166 -26.081)"/>
                </g>
                <g id="Group_4741" transform="translate(0 161.616)">
                    <path id="Path_3120" d="M189.827 248.53l1.688 6.33 26.163-6.33 24.475-64.14-16.036-5.49z" class="cls-2" transform="translate(-173.792 -163.291)"/>
                    <path id="Path_3121" d="M200.053 165.441l36.29 13.5-17.723 80.178L176 246.038z" class="cls-2" transform="translate(-176 -165.441)"/>
                    <path id="Path_3122" d="M177.233 240.563l37.814 11.122L231.5 180.37l-33.13-10.649z" class="cls-1" transform="translate(-175.803 -164.757)"/>
                    <path id="Path_3123" d="M197.388 184.987a11.75 11.75 0 0 0-5.046-.23l-9.88 33.106a11.873 11.873 0 0 0 5.108 2.935c7.754 2.126 16.237-4.168 18.948-14.057s-1.376-19.628-9.13-21.754z" class="cls-2" transform="translate(-174.968 -162.383)"/>
                    <path id="Path_3124" d="M195.7 190.094a.244.244 0 0 1-.14-.274l.44-1.71a.509.509 0 0 0-.419-.683l-1.849-.442a.5.5 0 0 0-.683.419l-.354 1.766a.245.245 0 0 1-.249.181 8.938 8.938 0 0 0-1.885.045l-3.381 11.326c2.634 2.742 6.743 4.105 6.193 6.4-.31 1.3-1.488 2.352-3.564 1.857a3.066 3.066 0 0 1-2.539-3.864l.109-.455c.061-.259-.094-.467-.451-.552l-.709-.17-2 6.708a8.31 8.31 0 0 0 2.771 1.67.241.241 0 0 1 .14.273l-.421 1.476a.5.5 0 0 0 .419.683l1.914.458a.5.5 0 0 0 .683-.42l.317-1.467a.244.244 0 0 1 .249-.181c4.08.428 6.857-1.582 7.71-5.15.682-2.853-.281-5.277-3.265-7.567-2.73-2.058-5.6-3.088-5.1-5.2.349-1.459 1.676-2.136 3.492-1.7a3.118 3.118 0 0 1 2.46 4.051l-.078.324c-.046.195.117.371.474.457l3.4.814a.511.511 0 0 0 .683-.42l.256-1.07c.807-3.337-.831-6.231-4.623-7.583z" class="cls-5" transform="translate(-174.687 -162.005)"/>
                </g>
                <g id="Group_4743" transform="translate(40.506 113.09)">
                    <path id="Path_3125" d="M224.435 129.927s5.063 7.595 5.908 14.347a24.6 24.6 0 0 1-3.8 16.457c-2.532 3.8-5.063 7.173-7.174 13.08s-2.532 14.348-5.485 18.568-4.642 8.439-.422 12.237 15.191 3.375 21.1-7.6 9.706-22.787 13.5-27.006 16.038-13.922 16.038-13.922 33.336-4.641 39.665-10.549 11.816-21.939 11.816-21.939" class="cls-16" transform="translate(-210.928 -123.597)"/>
                    <g id="Group_4742" clip-path="url(#clip-path-6)">
                        <path id="Path_3126" d="M313.066 128.5s-17.975 11.6-31.892 15.076-22.614 3.479-27.833 10.437-10.437 28.993-17.4 33.052-8.118-10.437-17.975-7.538c-.109.032-.217.079-.325.115-.96 4.529-1.807 9.163-3.76 11.954-2.954 4.219-4.642 8.439-.422 12.237s15.191 3.375 21.1-7.6 9.706-22.787 13.5-27.006 16.041-13.922 16.041-13.922 33.336-4.641 39.665-10.549c3.824-3.57 7.337-10.83 9.521-16.022z" class="cls-18" transform="translate(-210.928 -122.814)"/>
                    </g>
                    <path id="Path_3128" d="M224.435 129.927s5.063 7.595 5.908 14.347a24.6 24.6 0 0 1-3.8 16.457c-2.532 3.8-5.063 7.173-7.174 13.08s-2.532 14.348-5.485 18.568-4.642 8.439-.422 12.237 15.191 3.375 21.1-7.6 9.706-22.787 13.5-27.006 16.038-13.922 16.038-13.922 33.336-4.641 39.665-10.549 11.816-21.939 11.816-21.939" class="cls-8" transform="translate(-210.928 -123.597)"/>
                </g>
                <path id="Path_3129" d="M211.295 147.364s10.971 5.908 18.989-.844" class="cls-8" transform="translate(-170.363 -6.846)"/>
                <path id="Line_176" d="M9.705 18.567L0 0" class="cls-8" transform="translate(68.36 179.761)"/>
                <path id="Path_3130" d="M269.877 168.594s7.595-6.33 7.174-20.254" class="cls-8" transform="translate(-161.007 -6.556)"/>
            </g>
        </g>
        <g id="Floor" transform="translate(12.093 506.852)">
            <g id="Group_4745">
                <path id="Line_177" d="M0 0L459.243 0" class="cls-8" transform="translate(40.59)"/>
                <path id="Line_178" d="M0 0L20.875 0" class="cls-8"/>
            </g>
        </g>
    </g>
</svg>
