<svg xmlns="http://www.w3.org/2000/svg" width="24" height="24" viewBox="0 0 24 24">
    <g>
        <g>
            <g>
                <g>
                    <g>
                        <path fill-rule="evenodd" d="M268 415a2 2 0 0 1-2 2h-3.173l2.245 2.242a2 2 0 0 1 0 2.83 2 2 0 0 1-2.831 0L260 419.828V423a2 2 0 0 1-4 0v-3.172l-2.242 2.244a2 2 0 0 1-2.831 0 2 2 0 0 1 0-2.83l2.246-2.242H250a2 2 0 0 1 0-4h3.173l-2.245-2.242a2 2 0 0 1 0-2.83 2 2 0 0 1 2.831 0l2.241 2.244V407a2 2 0 0 1 4 0v3.172l2.242-2.244a2 2 0 0 1 2.831 0 2 2 0 0 1 0 2.83L262.827 413H266a2 2 0 0 1 2 2z" transform="translate(-747 -924) translate(749 926) translate(-248 -405)"/>
                    </g>
                </g>
            </g>
        </g>
    </g>
</svg>
