<svg xmlns="http://www.w3.org/2000/svg" width="40" height="40" viewBox="0 0 40 40">
    <g>
        <path fill="#707070" fill-rule="evenodd" d="M48.477 28.469a18.99 18.99 0 0 0 19.3-19.036v-.906a14.824 14.824 0 0 0 3.309-3.445 15.422 15.422 0 0 1-3.86 1.088 7.072 7.072 0 0 0 2.941-3.626 17 17 0 0 1-4.227 1.632A6.606 6.606 0 0 0 60.977 2a6.859 6.859 0 0 0-6.8 6.708 3.489 3.489 0 0 0 .184 1.45 19.089 19.089 0 0 1-13.971-7.07 6.87 6.87 0 0 0-.919 3.445 7.174 7.174 0 0 0 2.941 5.62 6.26 6.26 0 0 1-3.125-.906 6.652 6.652 0 0 0 5.513 6.526 5.742 5.742 0 0 1-1.838.181 3.168 3.168 0 0 1-1.287-.181 6.952 6.952 0 0 0 6.433 4.714 14 14 0 0 1-8.455 2.9A5.156 5.156 0 0 1 38 25.206a17.515 17.515 0 0 0 10.477 3.263" transform="translate(.148) translate(-34.691 4.616)"/>
    </g>
</svg>
